<svg width="2080" height="2953" viewBox="0 0 2080 2953" fill="none" xmlns="http://www.w3.org/2000/svg">
<g filter="url(#filter0_i_419_653)">
<rect width="2080" height="2953" fill="#1BAFB5"/>
<g clip-path="url(#clip0_419_653)">
<path d="M1642.71 1896.58H437.285V2191H1642.71V1896.58Z" fill="#C7B1A1"/>
<path d="M1642.71 1890.75H268V1931.56H1642.71V1890.75Z" fill="#B29581"/>
<path d="M438.015 525.427H268.729V768.192H438.015V525.427Z" fill="#D9CABF"/>
<path d="M438.015 524.64H268.729V557.755H438.015V524.64Z" fill="#B29581"/>
<path d="M326.608 768.192H268.729V646.634C268.729 631.826 285.453 600.635 297.654 600.635C309.329 600.635 326.608 631.826 326.608 646.634V768.192Z" fill="#B29581"/>
<path d="M315.283 768.192H280.054V660.335C280.054 647.217 290.211 619.524 297.566 619.524C304.717 619.524 315.078 647.247 315.078 660.335L315.283 768.192Z" fill="#093B3D"/>
<path d="M382.443 768.192H324.564V646.634C324.564 631.826 341.289 600.635 353.489 600.635C365.164 600.635 382.443 631.826 382.443 646.634V768.192Z" fill="#B29581"/>
<path d="M371.119 768.192H335.89V660.335C335.89 647.217 346.047 619.524 353.402 619.524C360.553 619.524 370.914 647.247 370.914 660.335L371.119 768.192Z" fill="#093B3D"/>
<path d="M438.015 768.192H380.137V646.634C380.137 631.826 396.861 600.635 409.091 600.635C420.766 600.635 438.015 631.826 438.015 646.634V768.192Z" fill="#B29581"/>
<path d="M426.691 768.192H391.462V660.335C391.462 647.217 401.648 619.524 408.974 619.524C416.096 619.524 426.486 647.247 426.486 660.335L426.691 768.192Z" fill="#093B3D"/>
<path d="M438.015 768.192H268.729V978.076H438.015V768.192Z" fill="#D9CABF"/>
<path d="M326.608 978.076H268.729V856.431C268.729 841.622 285.453 810.373 297.654 810.373C309.329 810.373 326.608 841.622 326.608 856.431V978.076Z" fill="#B29581"/>
<path d="M315.283 978.076H280.054V870.044C280.054 856.926 290.211 829.233 297.566 829.233C304.717 829.233 315.078 856.985 315.078 870.044L315.283 978.076Z" fill="#093B3D"/>
<path d="M382.443 978.076H324.564V856.431C324.564 841.622 341.289 810.373 353.489 810.373C365.164 810.373 382.443 841.622 382.443 856.431V978.076Z" fill="#B29581"/>
<path d="M371.119 978.076H335.89V870.044C335.89 856.926 346.047 829.233 353.402 829.233C360.553 829.233 370.914 856.985 370.914 870.044L371.119 978.076Z" fill="#093B3D"/>
<path d="M438.015 978.076H380.137V856.431C380.137 841.622 396.861 810.373 409.091 810.373C420.766 810.373 438.015 841.622 438.015 856.431V978.076Z" fill="#B29581"/>
<path d="M426.691 978.076H391.462V870.044C391.462 856.926 401.648 829.233 408.974 829.233C416.096 829.233 426.486 856.985 426.486 870.044L426.691 978.076Z" fill="#093B3D"/>
<path d="M438.015 978.076H268.729V1358.78H438.015V978.076Z" fill="#D9CABF"/>
<path d="M367.557 1202.51H339.333V1139.54C339.333 1131.87 347.506 1115.7 353.46 1115.7C359.151 1115.7 367.557 1131.87 367.557 1139.54V1202.51Z" fill="#093B3D"/>
<path d="M438.015 1358.34H268.729V1890.75H438.015V1358.34Z" fill="#D9CABF"/>
<path d="M367.557 1557.94H339.333V1494.54C339.333 1486.81 347.506 1470.54 353.46 1470.54C359.151 1470.54 367.557 1486.81 367.557 1494.54V1557.94Z" fill="#093B3D"/>
<path d="M438.015 1358.34H268.729V1393.44H438.015V1358.34Z" fill="#B29581"/>
<path d="M438.015 1888.88H268.729V2191H438.015V1888.88Z" fill="#D9CABF"/>
<path d="M438.015 1890.75H268.729V1931.56H438.015V1890.75Z" fill="#B29581"/>
<path d="M416.125 363H290.62V524.64H416.125V363Z" fill="#D9CABF"/>
<path d="M371.848 524.639H334.896V441.969C334.896 431.883 345.55 410.632 353.372 410.632C360.844 410.632 371.848 431.883 371.848 441.969V524.639Z" fill="#093B3D"/>
<path d="M416.125 363H290.62V383.405H416.125V363Z" fill="#B29581"/>
<path d="M1811.68 525.427H1642.39V768.192H1811.68V525.427Z" fill="#D9CABF"/>
<path d="M1811.68 524.64H1642.39V557.755H1811.68V524.64Z" fill="#B29581"/>
<path d="M1700.27 768.192H1642.39V646.634C1642.39 631.826 1659.09 600.635 1671.32 600.635C1682.99 600.635 1700.27 631.826 1700.27 646.634V768.192Z" fill="#B29581"/>
<path d="M1688.95 768.192H1653.72V660.335C1653.72 647.217 1663.87 619.524 1671.23 619.524C1678.38 619.524 1688.74 647.247 1688.74 660.335L1688.95 768.192Z" fill="#093B3D"/>
<path d="M1756.11 768.192H1698.17V646.634C1698.17 631.826 1714.86 600.635 1727.09 600.635C1738.77 600.635 1756.05 631.826 1756.05 646.634L1756.11 768.192Z" fill="#B29581"/>
<path d="M1744.87 768.192H1709.55V660.335C1709.55 647.217 1719.71 619.524 1727.07 619.524C1734.22 619.524 1744.58 647.247 1744.58 660.335L1744.87 768.192Z" fill="#093B3D"/>
<path d="M1811.68 768.192H1753.8V646.634C1753.8 631.826 1770.52 600.635 1782.72 600.635C1794.4 600.635 1811.68 631.826 1811.68 646.634V768.192Z" fill="#B29581"/>
<path d="M1800.32 768.192H1765.1V660.335C1765.1 647.217 1775.25 619.524 1782.61 619.524C1789.76 619.524 1800.12 647.247 1800.12 660.335L1800.32 768.192Z" fill="#093B3D"/>
<path d="M1811.68 768.192H1642.39V978.076H1811.68V768.192Z" fill="#D9CABF"/>
<path d="M1700.27 978.076H1642.39V856.431C1642.39 841.622 1659.09 810.373 1671.32 810.373C1682.99 810.373 1700.27 841.622 1700.27 856.431V978.076Z" fill="#B29581"/>
<path d="M1688.95 978.076H1653.72V870.044C1653.72 856.926 1663.87 829.233 1671.23 829.233C1678.38 829.233 1688.74 856.985 1688.74 870.044L1688.95 978.076Z" fill="#093B3D"/>
<path d="M1756.11 978.076H1698.17V856.431C1698.17 841.622 1714.86 810.373 1727.09 810.373C1738.77 810.373 1756.05 841.622 1756.05 856.431L1756.11 978.076Z" fill="#B29581"/>
<path d="M1744.87 978.076H1709.55V870.044C1709.55 856.926 1719.71 829.233 1727.07 829.233C1734.22 829.233 1744.58 856.985 1744.58 870.044L1744.87 978.076Z" fill="#093B3D"/>
<path d="M1811.68 978.076H1753.8V856.431C1753.8 841.622 1770.52 810.373 1782.72 810.373C1794.4 810.373 1811.68 841.622 1811.68 856.431V978.076Z" fill="#B29581"/>
<path d="M1800.32 978.076H1765.1V870.044C1765.1 856.926 1775.25 829.233 1782.61 829.233C1789.76 829.233 1800.12 856.985 1800.12 870.044L1800.32 978.076Z" fill="#093B3D"/>
<path d="M1811.68 978.076H1642.39V1358.78H1811.68V978.076Z" fill="#D9CABF"/>
<path d="M1741.22 1202.51H1713V1139.54C1713 1131.87 1721.14 1115.7 1727.12 1115.7C1732.82 1115.7 1741.22 1131.87 1741.22 1139.54V1202.51Z" fill="#093B3D"/>
<path d="M1811.68 1358.34H1642.71V1896.58H1811.68V1358.34Z" fill="#D9CABF"/>
<path d="M1741.37 1560.12H1713.2V1495.99C1713.2 1488.21 1721.32 1471.74 1727.27 1471.74C1733.11 1471.74 1741.37 1488.21 1741.37 1495.99V1560.12Z" fill="#093B3D"/>
<path d="M1811.68 1358.34H1642.71V1393.82H1811.68V1358.34Z" fill="#B29581"/>
<path d="M1812 1896.58H1642.71V2191H1812V1896.58Z" fill="#D9CABF"/>
<path d="M1812 1896.58H1642.71V1931.56H1812V1896.58Z" fill="#B29581"/>
<path d="M1789.79 363H1664.28V524.64H1789.79V363Z" fill="#D9CABF"/>
<path d="M1745.51 524.639H1708.56V441.969C1708.56 431.883 1719.21 410.632 1727.04 410.632C1734.51 410.632 1745.51 431.883 1745.51 441.969V524.639Z" fill="#093B3D"/>
<path d="M1789.79 363H1664.28V383.405H1789.79V363Z" fill="#B29581"/>
<path d="M1380.88 2189.48H700.087V778.599H1380.88V818.448V2189.48Z" fill="#D9CABF"/>
<path d="M1642.83 937.907V1895.06H1380.15V799.966L1642.83 937.907Z" fill="#C7B1A1"/>
<path d="M1571.03 1358.67H1458.13V1102.81C1458.13 1071.68 1490.74 1005.94 1514.58 1005.94C1537.44 1005.94 1571.03 1071.68 1571.03 1102.81V1358.67Z" fill="#093B3D"/>
<path d="M437.402 937.557V1892.15H700.087V799.966L437.402 937.557Z" fill="#C7B1A1"/>
<path d="M642.704 1358.67H529.809V1102.81C529.809 1071.68 562.411 1005.94 586.257 1005.94C609.11 1005.94 642.704 1071.68 642.704 1102.81V1358.67Z" fill="#093B3D"/>
<path d="M1642.83 1358.69H437.402V1393.67H1642.83V1358.69Z" fill="#B29581"/>
<path d="M625.192 1892.12H512.296V1636.27C512.296 1605.13 544.898 1539.4 568.744 1539.4C591.598 1539.4 625.192 1605.13 625.192 1636.27V1892.12Z" fill="#093B3D"/>
<path d="M1571.03 1895.03H1458.13V1639.18C1458.13 1608.05 1490.74 1542.31 1514.58 1542.31C1537.44 1542.31 1571.03 1608.05 1571.03 1639.18V1895.03Z" fill="#093B3D"/>
<path d="M1041.58 1268.33C1139.91 1268.33 1219.62 1188.72 1219.62 1090.51C1219.62 992.303 1139.91 912.691 1041.58 912.691C943.246 912.691 863.534 992.303 863.534 1090.51C863.534 1188.72 943.246 1268.33 1041.58 1268.33Z" fill="#B29581"/>
<path d="M1040.85 1242.09C1124.67 1242.09 1192.62 1174.23 1192.62 1090.51C1192.62 1006.79 1124.67 938.927 1040.85 938.927C957.024 938.927 889.073 1006.79 889.073 1090.51C889.073 1174.23 957.024 1242.09 1040.85 1242.09Z" fill="#093B3D"/>
<path d="M1041.58 1160.47C1080.26 1160.47 1111.63 1129.15 1111.63 1090.51C1111.63 1051.87 1080.26 1020.55 1041.58 1020.55C1002.89 1020.55 971.527 1051.87 971.527 1090.51C971.527 1129.15 1002.89 1160.47 1041.58 1160.47Z" fill="#093B3D"/>
<path d="M1076.02 1088L1074.15 1086.57L1077.91 1083.86C1079.62 1082.62 1080.88 1080.88 1081.53 1078.88C1082.18 1076.88 1082.18 1074.72 1081.54 1072.72C1080.89 1070.72 1079.63 1068.97 1077.93 1067.72C1076.23 1066.48 1074.18 1065.8 1072.08 1065.79H1068.08L1068.84 1063.63C1069.57 1061.64 1069.65 1059.46 1069.06 1057.41C1068.48 1055.37 1067.25 1053.56 1065.56 1052.26C1063.88 1050.96 1061.82 1050.23 1059.69 1050.18C1057.56 1050.13 1055.47 1050.76 1053.72 1051.97L1052.23 1052.99L1051.5 1050.75C1050.85 1048.74 1049.58 1046.99 1047.88 1045.75C1046.17 1044.51 1044.11 1043.84 1042 1043.84C1039.89 1043.84 1037.83 1044.51 1036.12 1045.75C1034.42 1046.99 1033.15 1048.74 1032.5 1050.75L1031.51 1053.66L1028.3 1051.21C1026.62 1049.93 1024.58 1049.22 1022.47 1049.17C1020.35 1049.12 1018.28 1049.73 1016.54 1050.93C1014.8 1052.13 1013.49 1053.84 1012.78 1055.83C1012.08 1057.82 1012.02 1059.98 1012.62 1062L1013.7 1065.56H1011.89C1009.79 1065.57 1007.74 1066.25 1006.04 1067.49C1004.34 1068.74 1003.08 1070.48 1002.43 1072.49C1001.78 1074.49 1001.79 1076.64 1002.44 1078.64C1003.09 1080.64 1004.35 1082.39 1006.06 1083.63L1006.81 1084.15L1004.19 1085.96C1002.45 1087.16 1001.14 1088.88 1000.44 1090.87C999.737 1092.86 999.684 1095.02 1000.29 1097.04C1000.89 1099.06 1002.11 1100.84 1003.79 1102.12C1005.47 1103.4 1007.51 1104.13 1009.62 1104.18H1015.04L1013.91 1107.68C1013.26 1109.68 1013.27 1111.84 1013.93 1113.84C1014.58 1115.84 1015.85 1117.58 1017.56 1118.82C1019.26 1120.05 1021.31 1120.72 1023.42 1120.73C1025.52 1120.73 1027.58 1120.07 1029.29 1118.84L1029.58 1118.64L1029.81 1119.51C1030.42 1121.54 1031.65 1123.31 1033.33 1124.59C1035.01 1125.87 1037.05 1126.59 1039.16 1126.64C1041.27 1126.7 1043.34 1126.08 1045.08 1124.88C1046.82 1123.69 1048.14 1121.97 1048.84 1119.98L1050.36 1115.67L1054.74 1118.84C1056.45 1120.09 1058.51 1120.77 1060.62 1120.77C1062.74 1120.78 1064.8 1120.11 1066.51 1118.87C1068.22 1117.63 1069.49 1115.87 1070.14 1113.86C1070.79 1111.85 1070.78 1109.69 1070.12 1107.68L1069.45 1105.55H1069.77C1071.79 1105.5 1073.75 1104.84 1075.39 1103.66C1077.02 1102.48 1078.26 1100.83 1078.94 1098.92C1079.62 1097.02 1079.7 1094.96 1079.18 1093.01C1078.66 1091.06 1077.55 1089.31 1076.02 1088Z" fill="#15868A"/>
<path d="M1109.7 996.995C1109.41 994.08 1102.87 985.334 1096.13 986.151C1091.46 986.646 1086.96 987.433 1083.17 988.191C1081.77 985.48 1080.1 982.361 1078.12 979.155C1074.62 973.324 1063.67 973.47 1061.22 974.928C1058.77 976.385 1053.51 986.005 1057.02 991.806C1059.21 995.479 1061.54 998.889 1063.67 1001.83C1061.72 1005.22 1059.35 1009.65 1056.96 1014.92C1054.04 1021.1 1060.52 1030.02 1063.12 1031.19C1065.71 1032.35 1076.6 1031.19 1079.4 1025.07C1081.59 1020.23 1083.4 1015.42 1084.71 1011.51C1088.54 1011.51 1093.47 1011.19 1098.84 1010.58C1105.67 1009.85 1110.02 999.822 1109.7 996.995Z" fill="#15868A"/>
<path d="M971.935 1172.95C972.168 1170.03 978.415 1161.29 985.186 1161.67C989.856 1162.04 994.38 1162.69 998.174 1163.33C999.488 1160.41 1001.09 1157.5 1002.96 1154.12C1006.26 1148.29 1017.23 1147.99 1019.71 1149.39C1022.2 1150.79 1027.77 1160.21 1024.44 1166.13C1022.37 1169.86 1020.15 1173.33 1018.11 1176.33C1020.69 1180.5 1023.06 1184.8 1025.2 1189.21C1028.12 1195.31 1022.28 1204.43 1019.57 1205.68C1016.85 1206.94 1006.08 1206.15 1003.11 1200.06C1000.77 1195.31 998.817 1190.55 997.27 1186.68C993.446 1186.68 988.659 1186.68 983.143 1186.18C976.459 1185.66 971.701 1175.77 971.935 1172.95Z" fill="#15868A"/>
<path d="M1100.1 1065.79C1098.9 1063.22 1100.1 1052.32 1106.17 1049.49C1110.43 1047.54 1114.69 1045.91 1118.34 1044.63C1118.13 1041.57 1117.99 1038.1 1118.02 1034.28C1118.02 1027.49 1127.5 1022.01 1130.36 1022.01C1133.22 1022.01 1142.65 1027.54 1142.65 1034.34C1142.65 1038.59 1142.39 1042.73 1142.1 1046.32C1145.51 1048.24 1149.77 1050.84 1154.56 1054.13C1160.13 1058.01 1159.26 1068.91 1157.65 1071.24C1156.05 1073.57 1145.98 1078.21 1140.49 1074.33C1136.14 1071.42 1132.14 1068.12 1128.99 1065.44C1125.66 1067.33 1121.43 1069.58 1116.41 1071.88C1110.22 1074.54 1101.26 1068.3 1100.1 1065.79Z" fill="#15868A"/>
<path d="M982.822 1112.43C983.99 1115.03 982.823 1125.9 976.723 1128.73C972.461 1130.68 968.199 1132.31 964.58 1133.59C964.755 1136.51 964.902 1140.12 964.902 1143.94C964.902 1150.73 955.387 1156.24 952.556 1156.21C949.724 1156.19 940.239 1150.71 940.268 1143.88C940.268 1139.63 940.501 1135.52 940.822 1131.9C937.407 1129.98 933.117 1127.41 928.359 1124.09C922.755 1120.21 923.631 1109.31 925.265 1106.98C926.9 1104.65 936.94 1100.01 942.398 1103.89C946.747 1106.8 950.746 1110.13 953.898 1112.63C957.225 1110.74 961.487 1108.5 966.507 1106.19C972.695 1103.69 981.626 1109.95 982.822 1112.43Z" fill="#15868A"/>
<path d="M1100.18 1111.15C1098.99 1113.71 1100.18 1124.62 1106.26 1127.44C1110.55 1129.4 1114.78 1131.03 1118.43 1132.31C1118.22 1135.23 1118.11 1138.84 1118.11 1142.66C1118.11 1149.45 1127.59 1154.93 1130.45 1154.93C1133.31 1154.93 1142.74 1149.39 1142.74 1142.6C1142.74 1138.35 1142.48 1134.21 1142.18 1130.62C1145.6 1128.7 1149.89 1126.1 1154.65 1122.81C1160.22 1118.93 1159.35 1108.03 1157.74 1105.7C1156.14 1103.36 1146.07 1098.73 1140.58 1102.61C1136.23 1105.52 1132.23 1108.82 1129.08 1111.5C1125.75 1109.6 1121.52 1107.36 1116.5 1105.06C1110.31 1102.23 1101.35 1108.55 1100.18 1111.15Z" fill="#15868A"/>
<path d="M924.448 1065.15C923.28 1062.58 924.448 1051.68 930.548 1048.85C934.81 1046.93 939.071 1045.27 942.69 1043.99C942.515 1041.07 942.369 1037.48 942.369 1033.64C942.369 1026.84 951.884 1021.36 954.715 1021.36C957.546 1021.36 967.032 1026.9 967.003 1033.69C967.003 1037.95 966.77 1042.09 966.449 1045.68C969.893 1047.6 974.154 1050.19 978.911 1053.49C984.515 1057.37 983.639 1068.27 982.005 1070.6C980.37 1072.93 970.33 1077.57 964.872 1073.69C960.523 1070.77 956.525 1067.48 953.373 1064.8C950.045 1066.69 945.813 1068.94 940.764 1071.24C934.576 1074.07 925.644 1067.74 924.448 1065.15Z" fill="#15868A"/>
<path d="M973.453 1002.97C973.453 1005.89 978.678 1015.39 985.479 1015.56C990.149 1015.56 994.702 1015.56 998.554 1015.24C999.576 1018.16 1000.83 1021.36 1002.35 1024.89C1005.06 1031.13 1015.92 1032.44 1018.55 1031.3C1021.17 1030.17 1027.65 1021.39 1024.97 1015.16C1023.28 1011.22 1021.44 1007.52 1019.74 1004.34C1022.11 1001.22 1025.03 997.17 1028.12 992.272C1031.71 986.442 1026.6 976.823 1024.18 975.307C1021.76 973.791 1010.84 973.47 1007.22 979.213C1004.3 983.702 1002 988.22 1000.16 991.923C996.336 991.485 991.549 991.077 986.033 990.961C979.232 990.786 973.511 1000.14 973.453 1002.97Z" fill="#15868A"/>
<path d="M1108.24 1180.15C1107.83 1183.06 1101 1191.55 1094.29 1190.55C1089.65 1189.88 1085.18 1188.95 1081.42 1188.08C1079.93 1190.73 1078.15 1193.73 1076.08 1196.82C1072.37 1202.65 1061.48 1202.01 1059.03 1200.47C1056.58 1198.92 1051.7 1189.13 1055.41 1183.44C1057.72 1179.86 1060.17 1176.53 1062.39 1173.65C1060.55 1170.21 1058.36 1165.72 1056.14 1160.35C1053.54 1154.09 1060.2 1145.37 1062.85 1144.29C1065.51 1143.21 1076.34 1144.7 1078.91 1151C1080.76 1155.48 1082.37 1160.05 1083.75 1164.7C1087.57 1164.9 1092.51 1165.31 1097.82 1166.1C1104.56 1167.2 1108.59 1177.35 1108.24 1180.15Z" fill="#15868A"/>
<path d="M1380.15 764.024H700.087V799.005H1380.15V764.024Z" fill="#B29581"/>
<path d="M743.634 1855.77H699.854V995.828L721.948 934.612L743.634 995.828V1855.77Z" fill="#B29581"/>
<path d="M743.75 1855.77H699.97V1107.18C699.97 1095.52 712.608 1070.98 721.86 1070.98C730.616 1070.98 743.75 1095.55 743.75 1107.18V1855.77Z" fill="#EBE4DF"/>
<path d="M1379.74 1855.77H1335.96V995.828L1358.05 934.612L1379.74 995.828V1855.77Z" fill="#B29581"/>
<path d="M1379.71 1855.77H1335.93V1107.18C1335.93 1095.52 1348.57 1070.98 1357.79 1070.98C1366.55 1070.98 1379.65 1095.55 1379.65 1107.18L1379.71 1855.77Z" fill="#EBE4DF"/>
<path d="M886.389 1725.79H787.152V1604.23C787.152 1589.45 815.814 1558.23 836.77 1558.23C856.851 1558.23 886.389 1589.45 886.389 1604.23V1725.79Z" fill="#B29581"/>
<path d="M867.008 1725.79H806.562V1617.93C806.562 1604.78 824.074 1577.12 836.771 1577.12C849 1577.12 866.979 1604.84 866.979 1617.93L867.008 1725.79Z" fill="#093B3D"/>
<path d="M1290.16 1725.79H1190.93V1604.23C1190.93 1589.45 1219.59 1558.23 1240.54 1558.23C1260.63 1558.23 1290.16 1589.45 1290.16 1604.23V1725.79Z" fill="#B29581"/>
<path d="M1270.75 1725.79H1210.34V1617.93C1210.34 1604.78 1227.85 1577.12 1240.55 1577.12C1252.77 1577.12 1270.75 1604.84 1270.75 1617.93V1725.79Z" fill="#093B3D"/>
<path d="M1380.38 1725.99H699.97V2189.48H1380.38V1725.99Z" fill="#D9CABF"/>
<path d="M823.139 2037.9H699.97V2189.48H823.139V2037.9Z" fill="#B29581"/>
<path d="M823.139 2037.9H699.97V2064.14H823.139V2037.9Z" fill="#614A3A"/>
<path d="M1380.38 2037.9H1257.21V2191.03H1380.38V2037.9Z" fill="#B29581"/>
<path d="M1380.38 2037.9H1257.21V2064.4H1380.38V2037.9Z" fill="#614A3A"/>
<path d="M1380.38 1725.85H699.97V1763.74H1380.38V1725.85Z" fill="#C7B1A1"/>
<path d="M822.352 1852.45C822.352 1852.45 831.108 1732.93 925.003 1555.11C978.036 1454.66 1042.34 1409.36 1042.34 1409.36C1042.34 1409.36 1107.48 1473.29 1153.77 1555.11C1206.57 1648.39 1258.38 1853.41 1258.38 1853.41L822.352 1852.45Z" fill="#403126"/>
<path d="M822.352 1852.85C822.352 1852.85 856.588 1733.98 909.359 1655.27C962.129 1576.57 1042.34 1553.24 1042.34 1553.24C1042.34 1553.24 1120.53 1576.57 1173.33 1655.27C1226.13 1733.98 1258.38 1853.49 1258.38 1853.49L822.352 1852.85Z" fill="#614A3A"/>
<path d="M877.398 1852.85C877.398 1852.85 902.966 1764 942.427 1705.18C966.5 1669.74 1001.36 1643 1041.84 1628.89C1081.8 1643.26 1116.11 1670.01 1139.76 1705.24C1179.22 1764.06 1203.36 1853.41 1203.36 1853.41L877.398 1852.85Z" fill="#B29581"/>
<path d="M898.121 1852.85C898.121 1852.85 920.45 1775.31 954.891 1723.95C975.928 1693.09 1006.35 1669.8 1041.66 1657.55C1076.53 1670.07 1106.47 1693.4 1127.12 1724.13C1161.59 1775.49 1182.58 1853.47 1182.58 1853.47L898.121 1852.85Z" fill="#614A3A"/>
<path d="M945.084 2039.65H821.914V2188.64H945.084V2039.65Z" fill="#614A3A"/>
<path d="M945.084 2039.65H821.914V2065.45H945.084V2039.65Z" fill="#403126"/>
<path d="M945.084 1853.44H821.914V2039.68H945.084V1853.44Z" fill="#614A3A"/>
<path d="M945.084 1853.44H821.914V1882.09H945.084V1853.44Z" fill="#403126"/>
<path d="M1258.44 2039.71H1135.27V2189.48H1258.44V2039.71Z" fill="#614A3A"/>
<path d="M1258.44 2039.71H1135.27V2065.62H1258.44V2039.71Z" fill="#403126"/>
<path d="M1258.44 1853.44H1135.27V2039.45H1258.44V1853.44Z" fill="#614A3A"/>
<path d="M1258.44 1853.44H1135.27V1881.1H1258.44V1853.44Z" fill="#403126"/>
<path d="M944.12 2188.64V1855.77C944.12 1816.59 988.514 1731.06 1040.26 1731.06C1094.11 1731.06 1135.18 1816.77 1135.18 1855.77V2188.64H944.12Z" fill="#5C2A06"/>
</g>
<path d="M129.029 2628.25C124.863 2628.25 121.279 2625.08 118.279 2618.75C115.279 2612.42 113.779 2604.67 113.779 2595.5V2543.5C113.779 2540.33 122.529 2534.92 140.029 2527.25C157.529 2519.42 167.613 2515.5 170.279 2515.5C172.279 2515.5 175.113 2518.83 178.779 2525.5C179.613 2527.17 180.779 2529.42 182.279 2532.25C183.946 2535.08 185.279 2537.42 186.279 2539.25C188.446 2543.25 191.196 2545.25 194.529 2545.25V2550.25C191.863 2551.42 188.279 2553.17 183.779 2555.5C173.279 2561.33 167.613 2564.25 166.779 2564.25C164.279 2564.25 161.113 2559.33 157.279 2549.5C153.613 2539.67 150.613 2534.75 148.279 2534.75C145.279 2534.75 143.779 2537.25 143.779 2542.25V2598C143.779 2604.67 145.279 2608 148.279 2608C148.946 2608 154.113 2605.83 163.779 2601.5C173.446 2597.17 179.279 2595 181.279 2595C185.279 2595 188.779 2598.25 191.779 2604.75C194.946 2611.08 196.529 2619.25 196.529 2629.25V2682.5C196.529 2685.67 186.946 2691.17 167.779 2699C148.779 2706.67 137.863 2710.5 135.029 2710.5C133.863 2710.5 132.529 2709.08 131.029 2706.25C129.529 2703.42 127.529 2699.42 125.029 2694.25C122.696 2688.92 120.529 2684.5 118.529 2681C116.696 2677.5 114.113 2675.75 110.779 2675.75V2670.75C113.446 2669.58 116.946 2667.83 121.279 2665.5C131.946 2659.67 137.696 2656.75 138.529 2656.75C141.029 2656.75 144.529 2662.5 149.029 2674C153.696 2685.5 157.196 2691.25 159.529 2691.25C161.196 2691.25 162.779 2690.58 164.279 2689.25C165.779 2687.92 166.529 2686.08 166.529 2683.75V2627.5C166.529 2620 164.446 2616.25 160.279 2616.25C158.946 2616.25 153.696 2618.25 144.529 2622.25C135.363 2626.25 130.196 2628.25 129.029 2628.25ZM219.98 2682.5V2539C219.98 2537.83 229.48 2533.75 248.48 2526.75C267.48 2519.58 278.397 2516 281.23 2516C284.064 2516 288.314 2519.42 293.98 2526.25C299.814 2533.08 302.73 2539.25 302.73 2544.75V2610.25H314.98V2616.25L302.73 2622.5V2671C302.73 2680.17 306.73 2685.58 314.73 2687.25V2692.75L287.48 2708C283.814 2706.5 280.397 2704.08 277.23 2700.75C274.064 2697.25 272.48 2694 272.48 2691V2622.5H249.98V2669.5C249.98 2675.67 250.647 2680.08 251.98 2682.75C253.314 2685.42 256.064 2686.75 260.23 2686.75V2694.5L208.98 2716L204.98 2708C208.647 2708 212.147 2705.83 215.48 2701.5C218.48 2697.33 219.98 2691 219.98 2682.5ZM259.73 2539.25C256.397 2539.25 253.147 2540.5 249.98 2543V2616.75L264.73 2610.25H272.48V2557.75C272.48 2545.42 268.23 2539.25 259.73 2539.25ZM327.646 2679.5V2556.25C327.646 2550.75 326.48 2546 324.146 2542C321.813 2538 318.896 2536 315.396 2536V2530.5C316.563 2530.33 325.646 2525.25 342.646 2515.25C343.813 2515.58 345.23 2516.08 346.896 2516.75C348.563 2517.25 350.73 2518.83 353.396 2521.5C356.23 2524.17 357.646 2527.25 357.646 2530.75C358.646 2530.25 361.48 2528.67 366.146 2526C378.48 2519 385.813 2515.5 388.146 2515.5C393.48 2515.5 398.48 2519 403.146 2526C407.813 2533 410.146 2539.42 410.146 2545.25V2671C410.146 2680.17 414.23 2685.58 422.396 2687.25V2692.75L395.146 2708C391.48 2706.5 388.063 2704.08 384.896 2700.75C381.73 2697.25 380.146 2694 380.146 2691V2568.5C380.146 2558 378.563 2550.83 375.396 2547C372.396 2543.17 366.48 2541.25 357.646 2541.25V2669.5C357.646 2676.17 358.48 2680.75 360.146 2683.25C361.813 2685.58 364.396 2686.75 367.896 2686.75V2694.5L316.646 2716L312.646 2708C315.98 2708 319.23 2706 322.396 2702C325.896 2697.33 327.646 2689.83 327.646 2679.5ZM453.068 2682.5V2550L460.818 2542.5H445.068C434.902 2542.5 429.152 2545.25 427.818 2550.75H422.318L408.068 2530.25C410.068 2527.08 412.652 2524.25 415.818 2521.75C418.985 2519.25 422.068 2518 425.068 2518H491.068C501.235 2518 506.985 2515.25 508.318 2509.75H513.818L528.068 2530.25C526.068 2533.42 523.485 2536.25 520.318 2538.75C517.152 2541.25 514.068 2542.5 511.068 2542.5H483.068V2669.5C483.068 2675.67 483.735 2680.08 485.068 2682.75C486.402 2685.42 489.152 2686.75 493.318 2686.75V2694.5L442.068 2716L438.068 2708C441.735 2708 445.235 2705.83 448.568 2701.5C451.568 2697.33 453.068 2691 453.068 2682.5ZM526.377 2682.5V2539C526.377 2537.83 535.877 2533.75 554.877 2526.75C573.877 2519.58 584.794 2516 587.627 2516C590.46 2516 594.71 2519.42 600.377 2526.25C606.21 2533.08 609.127 2539.25 609.127 2544.75V2610.25H621.377V2616.25L609.127 2622.5V2671C609.127 2680.17 613.127 2685.58 621.127 2687.25V2692.75L593.877 2708C590.21 2706.5 586.794 2704.08 583.627 2700.75C580.46 2697.25 578.877 2694 578.877 2691V2622.5H556.377V2669.5C556.377 2675.67 557.044 2680.08 558.377 2682.75C559.71 2685.42 562.46 2686.75 566.627 2686.75V2694.5L515.377 2716L511.377 2708C515.044 2708 518.544 2705.83 521.877 2701.5C524.877 2697.33 526.377 2691 526.377 2682.5ZM566.127 2539.25C562.794 2539.25 559.544 2540.5 556.377 2543V2616.75L571.127 2610.25H578.877V2557.75C578.877 2545.42 574.627 2539.25 566.127 2539.25ZM681.65 2682.5V2556.25C681.65 2550.75 680.484 2546 678.15 2542C675.817 2538 672.9 2536 669.4 2536V2530.5C670.567 2530.33 679.65 2525.25 696.65 2515.25C697.817 2515.58 699.234 2516.08 700.9 2516.75C702.567 2517.25 704.734 2518.83 707.4 2521.5C710.234 2524.17 711.65 2527.25 711.65 2530.75C712.65 2530.25 715.484 2528.67 720.15 2526C732.484 2519 740.067 2515.5 742.9 2515.5C745.9 2515.5 749.15 2517 752.65 2520C756.317 2523 759.067 2526.58 760.9 2530.75C761.234 2530.58 764.65 2528.83 771.15 2525.5C784.15 2518.83 791.984 2515.5 794.65 2515.5C799.984 2515.5 804.984 2519 809.65 2526C814.317 2533 816.65 2539.42 816.65 2545.25V2671C816.65 2680.17 820.734 2685.58 828.9 2687.25V2692.75L801.65 2708C797.984 2706.5 794.567 2704.08 791.4 2700.75C788.234 2697.25 786.65 2694 786.65 2691V2568.5C786.65 2558.5 784.984 2551.58 781.65 2547.75C778.484 2543.75 772.65 2541.58 764.15 2541.25V2671C764.15 2680.17 768.234 2685.58 776.4 2687.25V2692.75L749.15 2708C745.484 2706.5 742.067 2704.08 738.9 2700.75C735.734 2697.25 734.15 2694 734.15 2691V2568.5C734.15 2558 732.567 2550.83 729.4 2547C726.4 2543.17 720.484 2541.25 711.65 2541.25V2669.5C711.65 2675.67 712.317 2680.08 713.65 2682.75C714.984 2685.42 717.734 2686.75 721.9 2686.75V2694.5L670.65 2716L666.65 2708C670.317 2708 673.817 2705.83 677.15 2701.5C680.15 2697.33 681.65 2691 681.65 2682.5ZM841.563 2682.5V2539C841.563 2537.83 851.063 2533.75 870.063 2526.75C889.063 2519.58 899.979 2516 902.813 2516C905.646 2516 909.896 2519.42 915.563 2526.25C921.396 2533.08 924.313 2539.25 924.313 2544.75V2610.25H936.563V2616.25L924.313 2622.5V2671C924.313 2680.17 928.313 2685.58 936.313 2687.25V2692.75L909.063 2708C905.396 2706.5 901.979 2704.08 898.813 2700.75C895.646 2697.25 894.063 2694 894.063 2691V2622.5H871.563V2669.5C871.563 2675.67 872.229 2680.08 873.563 2682.75C874.896 2685.42 877.646 2686.75 881.813 2686.75V2694.5L830.563 2716L826.562 2708C830.229 2708 833.729 2705.83 837.063 2701.5C840.063 2697.33 841.563 2691 841.563 2682.5ZM881.313 2539.25C877.979 2539.25 874.729 2540.5 871.563 2543V2616.75L886.313 2610.25H894.063V2557.75C894.063 2545.42 889.813 2539.25 881.313 2539.25ZM988.979 2540C985.979 2540 982.729 2541.25 979.229 2543.75V2625C983.562 2625 988.395 2623.67 993.729 2621C999.062 2618.17 1001.73 2615.25 1001.73 2612.25V2558.5C1001.73 2546.17 997.479 2540 988.979 2540ZM949.229 2682.5V2553C949.229 2542.83 945.812 2537.08 938.979 2535.75V2530.25L964.229 2516C967.562 2517.33 970.895 2519.75 974.229 2523.25C977.562 2526.75 979.229 2529.92 979.229 2532.75C997.562 2521.58 1008.06 2516 1010.73 2516C1013.4 2516 1017.56 2519.42 1023.23 2526.25C1029.06 2533.08 1031.98 2539.25 1031.98 2544.75V2615C1031.98 2616.33 1022.9 2620.58 1004.73 2627.75C1012.4 2653.58 1021.4 2671 1031.73 2680C1036.4 2683.83 1041.15 2685.75 1045.98 2685.75V2693.25C1030.48 2703.08 1020.65 2708 1016.48 2708C1010.98 2708 1003.98 2697.67 995.479 2677C987.145 2656.33 982.645 2642.67 981.979 2636L979.229 2636.75V2669.5C979.229 2675.67 979.895 2680.08 981.229 2682.75C982.562 2685.42 985.312 2686.75 989.479 2686.75V2694.5L938.229 2716L934.229 2708C937.895 2708 941.395 2705.83 944.729 2701.5C947.729 2697.33 949.229 2691 949.229 2682.5ZM1057.14 2676V2561.75C1057.14 2555.58 1056.47 2551.17 1055.14 2548.5C1053.81 2545.83 1051.06 2544.5 1046.89 2544.5V2536.75L1098.14 2515.25L1102.14 2523.25C1098.47 2523.25 1094.97 2525.42 1091.64 2529.75C1088.64 2533.92 1087.14 2540.25 1087.14 2548.75V2666.25C1087.14 2670.75 1087.89 2674 1089.39 2676C1090.89 2677.83 1093.47 2678.75 1097.14 2678.75V2685.75C1063.31 2700.58 1046.31 2708 1046.14 2708L1042.14 2700C1043.47 2700 1045.06 2699.42 1046.89 2698.25C1048.89 2697.08 1050.56 2695.75 1051.89 2694.25C1055.39 2690.25 1057.14 2684.17 1057.14 2676ZM1112.07 2682.5V2539C1112.07 2537.83 1121.57 2533.75 1140.57 2526.75C1159.57 2519.58 1170.49 2516 1173.32 2516C1176.15 2516 1180.4 2519.42 1186.07 2526.25C1191.9 2533.08 1194.82 2539.25 1194.82 2544.75V2610.25H1207.07V2616.25L1194.82 2622.5V2671C1194.82 2680.17 1198.82 2685.58 1206.82 2687.25V2692.75L1179.57 2708C1175.9 2706.5 1172.49 2704.08 1169.32 2700.75C1166.15 2697.25 1164.57 2694 1164.57 2691V2622.5H1142.07V2669.5C1142.07 2675.67 1142.74 2680.08 1144.07 2682.75C1145.4 2685.42 1148.15 2686.75 1152.32 2686.75V2694.5L1101.07 2716L1097.07 2708C1100.74 2708 1104.24 2705.83 1107.57 2701.5C1110.57 2697.33 1112.07 2691 1112.07 2682.5ZM1151.82 2539.25C1148.49 2539.25 1145.24 2540.5 1142.07 2543V2616.75L1156.82 2610.25H1164.57V2557.75C1164.57 2545.42 1160.32 2539.25 1151.82 2539.25ZM1350.09 2544.25V2684.75C1350.09 2686.08 1340.93 2690.33 1322.59 2697.5C1304.43 2704.5 1293.26 2708 1289.09 2708C1285.09 2708 1280.43 2704.42 1275.09 2697.25C1269.93 2690.08 1267.34 2681.5 1267.34 2671.5V2551.5C1267.34 2542.5 1263.93 2537.25 1257.09 2535.75V2530.25L1282.34 2516C1286.01 2517.5 1289.43 2520 1292.59 2523.5C1295.76 2526.83 1297.34 2530 1297.34 2533L1328.34 2515.5C1331.34 2515.5 1335.68 2518.92 1341.34 2525.75C1347.18 2532.58 1350.09 2538.75 1350.09 2544.25ZM1310.09 2685C1313.26 2685 1316.51 2683.67 1319.84 2681V2563C1319.84 2551.17 1315.59 2545.25 1307.09 2545.25C1303.76 2545.25 1300.51 2546.5 1297.34 2549V2666.5C1297.34 2678.83 1301.59 2685 1310.09 2685ZM1409.51 2539.75C1407.84 2539.75 1406.34 2540.58 1405.01 2542.25V2608.25H1440.26V2614.25L1427.76 2620.5H1405.01V2645.5C1405.01 2664 1406.84 2674.83 1410.51 2678C1416.01 2682.67 1422.01 2685.33 1428.51 2686C1435.01 2686.67 1442.01 2687 1449.51 2687V2694.25C1448.68 2694.25 1442.51 2696.58 1431.01 2701.25C1419.51 2705.75 1412.51 2708 1410.01 2708C1404.84 2708 1397.68 2704 1388.51 2696C1379.51 2688 1375.01 2679.33 1375.01 2670V2538.5C1375.01 2537.33 1384.51 2533.25 1403.51 2526.25C1422.68 2519.08 1433.68 2515.5 1436.51 2515.5C1437.51 2515.5 1438.68 2517.92 1440.01 2522.75C1441.34 2527.58 1442.84 2533.42 1444.51 2540.25C1446.34 2547.08 1448.18 2552.17 1450.01 2555.5C1452.01 2558.67 1455.68 2560.25 1461.01 2560.25V2565.25C1457.34 2566.92 1451.09 2569.92 1442.26 2574.25C1433.59 2578.42 1428.93 2580.5 1428.26 2580.5C1425.76 2580.5 1422.59 2573.75 1418.76 2560.25C1414.93 2546.58 1411.84 2539.75 1409.51 2539.75ZM1476.08 2670.25V2561.75C1476.08 2555.58 1475.42 2551.17 1474.08 2548.5C1472.75 2545.83 1470 2544.5 1465.83 2544.5V2536.75L1517.08 2515.25L1521.08 2523.25C1517.42 2523.25 1513.92 2525.42 1510.58 2529.75C1507.58 2533.92 1506.08 2540.25 1506.08 2548.75V2651C1506.08 2664.33 1507.25 2672.33 1509.58 2675C1513.58 2680 1517.5 2683 1521.33 2684C1530.17 2686 1539.92 2687 1550.58 2687V2694C1528.42 2703.33 1515.75 2708 1512.58 2708C1509.58 2708 1505.42 2706.67 1500.08 2704C1494.75 2701.17 1489.42 2696.67 1484.08 2690.5C1478.75 2684.33 1476.08 2677.58 1476.08 2670.25ZM1615.73 2682.5V2556.25C1615.73 2550.75 1614.57 2546 1612.23 2542C1609.9 2538 1606.98 2536 1603.48 2536V2530.5C1604.65 2530.33 1613.73 2525.25 1630.73 2515.25C1631.9 2515.58 1633.32 2516.08 1634.98 2516.75C1636.65 2517.25 1638.82 2518.83 1641.48 2521.5C1644.32 2524.17 1645.73 2527.25 1645.73 2530.75C1646.73 2530.25 1649.57 2528.67 1654.23 2526C1666.57 2519 1674.15 2515.5 1676.98 2515.5C1679.98 2515.5 1683.23 2517 1686.73 2520C1690.4 2523 1693.15 2526.58 1694.98 2530.75C1695.32 2530.58 1698.73 2528.83 1705.23 2525.5C1718.23 2518.83 1726.07 2515.5 1728.73 2515.5C1734.07 2515.5 1739.07 2519 1743.73 2526C1748.4 2533 1750.73 2539.42 1750.73 2545.25V2671C1750.73 2680.17 1754.82 2685.58 1762.98 2687.25V2692.75L1735.73 2708C1732.07 2706.5 1728.65 2704.08 1725.48 2700.75C1722.32 2697.25 1720.73 2694 1720.73 2691V2568.5C1720.73 2558.5 1719.07 2551.58 1715.73 2547.75C1712.57 2543.75 1706.73 2541.58 1698.23 2541.25V2671C1698.23 2680.17 1702.32 2685.58 1710.48 2687.25V2692.75L1683.23 2708C1679.57 2706.5 1676.15 2704.08 1672.98 2700.75C1669.82 2697.25 1668.23 2694 1668.23 2691V2568.5C1668.23 2558 1666.65 2550.83 1663.48 2547C1660.48 2543.17 1654.57 2541.25 1645.73 2541.25V2669.5C1645.73 2675.67 1646.4 2680.08 1647.73 2682.75C1649.07 2685.42 1651.82 2686.75 1655.98 2686.75V2694.5L1604.73 2716L1600.73 2708C1604.4 2708 1607.9 2705.83 1611.23 2701.5C1614.23 2697.33 1615.73 2691 1615.73 2682.5ZM1775.64 2682.5V2539C1775.64 2537.83 1785.14 2533.75 1804.14 2526.75C1823.14 2519.58 1834.06 2516 1836.89 2516C1839.73 2516 1843.98 2519.42 1849.64 2526.25C1855.48 2533.08 1858.39 2539.25 1858.39 2544.75V2610.25H1870.64V2616.25L1858.39 2622.5V2671C1858.39 2680.17 1862.39 2685.58 1870.39 2687.25V2692.75L1843.14 2708C1839.48 2706.5 1836.06 2704.08 1832.89 2700.75C1829.73 2697.25 1828.14 2694 1828.14 2691V2622.5H1805.64V2669.5C1805.64 2675.67 1806.31 2680.08 1807.64 2682.75C1808.98 2685.42 1811.73 2686.75 1815.89 2686.75V2694.5L1764.64 2716L1760.64 2708C1764.31 2708 1767.81 2705.83 1771.14 2701.5C1774.14 2697.33 1775.64 2691 1775.64 2682.5ZM1815.39 2539.25C1812.06 2539.25 1808.81 2540.5 1805.64 2543V2616.75L1820.39 2610.25H1828.14V2557.75C1828.14 2545.42 1823.89 2539.25 1815.39 2539.25ZM1923.06 2540C1920.06 2540 1916.81 2541.25 1913.31 2543.75V2625C1917.64 2625 1922.48 2623.67 1927.81 2621C1933.14 2618.17 1935.81 2615.25 1935.81 2612.25V2558.5C1935.81 2546.17 1931.56 2540 1923.06 2540ZM1883.31 2682.5V2553C1883.31 2542.83 1879.89 2537.08 1873.06 2535.75V2530.25L1898.31 2516C1901.64 2517.33 1904.98 2519.75 1908.31 2523.25C1911.64 2526.75 1913.31 2529.92 1913.31 2532.75C1931.64 2521.58 1942.14 2516 1944.81 2516C1947.48 2516 1951.64 2519.42 1957.31 2526.25C1963.14 2533.08 1966.06 2539.25 1966.06 2544.75V2615C1966.06 2616.33 1956.98 2620.58 1938.81 2627.75C1946.48 2653.58 1955.48 2671 1965.81 2680C1970.48 2683.83 1975.23 2685.75 1980.06 2685.75V2693.25C1964.56 2703.08 1954.73 2708 1950.56 2708C1945.06 2708 1938.06 2697.67 1929.56 2677C1921.23 2656.33 1916.73 2642.67 1916.06 2636L1913.31 2636.75V2669.5C1913.31 2675.67 1913.98 2680.08 1915.31 2682.75C1916.64 2685.42 1919.39 2686.75 1923.56 2686.75V2694.5L1872.31 2716L1868.31 2708C1871.98 2708 1875.48 2705.83 1878.81 2701.5C1881.81 2697.33 1883.31 2691 1883.31 2682.5Z" fill="white"/>
</g>
<defs>
<filter id="filter0_i_419_653" x="0" y="0" width="2080" height="2953" filterUnits="userSpaceOnUse" color-interpolation-filters="sRGB">
<feFlood flood-opacity="0" result="BackgroundImageFix"/>
<feBlend mode="normal" in="SourceGraphic" in2="BackgroundImageFix" result="shape"/>
<feColorMatrix in="SourceAlpha" type="matrix" values="0 0 0 0 0 0 0 0 0 0 0 0 0 0 0 0 0 0 127 0" result="hardAlpha"/>
<feOffset dy="4"/>
<feComposite in2="hardAlpha" operator="arithmetic" k2="-1" k3="1"/>
<feColorMatrix type="matrix" values="0 0 0 0 0 0 0 0 0 0 0 0 0 0 0 0 0 0 0.25 0"/>
<feBlend mode="normal" in2="shape" result="effect1_innerShadow_419_653"/>
</filter>
<clipPath id="clip0_419_653">
<rect width="1544" height="1828" fill="white" transform="translate(268 363)"/>
</clipPath>
</defs>
</svg>
