<svg width="2080" height="2953" viewBox="0 0 2080 2953" fill="none" xmlns="http://www.w3.org/2000/svg">
<g filter="url(#filter0_i_441_1906)">
<rect width="2080" height="2953" fill="#1BAFB5"/>
<path d="M1424.96 997.228C1423.28 1063.39 1291.13 1224.7 1298.43 1301.6C1303.93 1359.03 1541.76 2191 1541.76 2191L1050.11 2187.77H690.701C690.701 2187.77 732.444 1639.32 782.998 1469.37C808.169 1384.83 869.715 1359.79 869.715 1359.79C869.715 1359.79 827.049 1304.45 827.762 1260.73C828.475 1223.9 873.91 1191.18 873.91 1191.18C873.91 1191.18 845.382 1036.16 859.646 997.27C886.873 922.888 1066.64 960.058 1145.85 960.058C1235.84 960.058 1381.83 933.292 1424.63 997.27" fill="#3C3C3B"/>
<path d="M834.307 714.091V978.773L1409.99 987.499V714.972L834.307 714.091Z" fill="#575756"/>
<path d="M1267.89 926.247C1250.9 906.949 1229.34 834.286 1229.34 834.286H1036.81C1036.81 834.286 1015.38 906.949 998.26 926.247C981.143 945.545 783.209 1011.58 783.209 1011.58C783.209 1011.58 855.033 1178.22 1133.05 1174.11C1411.12 1178.3 1482.94 1011.58 1482.94 1011.58C1482.94 1011.58 1284.92 945.545 1267.89 926.247Z" fill="#C6C6C6"/>
<mask id="mask0_441_1906" style="mask-type:luminance" maskUnits="userSpaceOnUse" x="783" y="834" width="700" height="341">
<path d="M1267.89 926.248C1250.9 906.95 1229.34 834.287 1229.34 834.287H1036.81C1036.81 834.287 1015.38 906.95 998.26 926.248C981.143 945.546 783.209 1011.58 783.209 1011.58C783.209 1011.58 855.033 1178.22 1133.05 1174.11C1411.12 1178.3 1482.94 1011.58 1482.94 1011.58C1482.94 1011.58 1284.92 945.546 1267.89 926.248Z" fill="white"/>
</mask>
<g mask="url(#mask0_441_1906)">
<path d="M981.812 901.074C981.812 901.074 1033.96 957.711 1132.84 956.075C1231.73 954.438 1280.39 902.71 1280.39 902.71L1251.02 809.113L1008.16 808.19L981.812 901.074Z" fill="url(#paint0_linear_441_1906)"/>
<path d="M861.997 936.354C861.997 936.354 981.017 1068.84 1130.5 1068.84C1277.58 1068.84 1421.06 946.213 1421.06 946.213L1525.57 930.606L1545.28 1167.26L1144.09 1191.09L793.529 1150.78V936.354H861.997Z" fill="#DADADA"/>
<path d="M903.865 957.714C903.865 957.714 1011.94 1064.27 1133.05 1061.13C1258.45 1057.86 1377.47 965.098 1377.47 965.098L1277.2 914.376C1277.2 914.376 1241.42 961.867 1136.16 962.622C1024.52 963.461 992.176 915.341 992.176 915.341L903.865 957.714Z" fill="#DADADA"/>
</g>
<path d="M918.328 893.689C918.328 893.689 919.75 1359.58 1025.35 1377.67C1130.95 1395.76 1298.37 977.035 1298.37 977.035" stroke="#FFE381" stroke-width="2" stroke-miterlimit="10"/>
<path d="M1062.48 1413.77L1030.97 1406.86L1036.86 1380.02L1013.87 1374.98L1007.98 1401.82L976.426 1394.9L971.384 1417.89L1002.94 1424.81L987.669 1494.43L1010.66 1499.48L1025.93 1429.85L1057.44 1436.76L1062.48 1413.77Z" fill="#FBEE6F"/>
<path d="M1146.14 865.753C1262.01 865.753 1355.95 771.82 1355.95 655.946C1355.95 540.073 1262.01 446.14 1146.14 446.14C1030.27 446.14 936.334 540.073 936.334 655.946C936.334 771.82 1030.27 865.753 1146.14 865.753Z" fill="#DADADA"/>
<path d="M1118.58 577.328H1056.03C1007.11 577.328 940.322 630.188 950.81 688.083C955.006 711.493 991.924 735.029 1000.73 748.328C1017.01 772.912 1022.72 798.252 1050.83 817.047C1073.86 832.486 1132.51 834.541 1155.71 819.103C1183.82 800.266 1220.32 772.954 1236.59 748.328C1245.4 735.029 1251.49 713.507 1255.72 690.139C1266.25 632.244 1230.22 577.328 1181.3 577.328H1118.58Z" fill="#D9CABF"/>
<path d="M1288.07 446.14C1288.07 446.14 1223.5 393.027 1145.43 393.069C1065.72 393.069 1004.68 446.14 1004.68 446.14C921.778 506.93 666.494 1041.87 666.494 1041.87C666.494 1041.87 720.11 1103.17 775.949 1109.75C831.789 1116.34 852.094 1106.06 903.528 1069.94C954.963 1033.82 994.273 639.375 1016.26 582.361C1052.38 488.806 1099.91 495.351 1099.91 495.351C1099.91 495.351 1140.9 493.295 1177.02 586.892C1198.84 643.906 1238.1 1038.26 1289.58 1074.47C1341.06 1110.67 1460.75 1116.42 1516.59 1109.75C1572.43 1103.08 1626 1041.87 1626 1041.87C1626 1041.87 1372.39 504.538 1288.07 446.14Z" fill="#3C3C3B"/>
<path d="M1037.15 692.234C1057.21 692.234 1073.48 675.968 1073.48 655.903C1073.48 635.837 1057.21 619.571 1037.15 619.571C1017.08 619.571 1000.81 635.837 1000.81 655.903C1000.81 675.968 1017.08 692.234 1037.15 692.234Z" fill="white"/>
<path d="M1029.43 675.495C1043.7 675.495 1055.27 663.925 1055.27 649.652C1055.27 635.379 1043.7 623.809 1029.43 623.809C1015.16 623.809 1003.59 635.379 1003.59 649.652C1003.59 663.925 1015.16 675.495 1029.43 675.495Z" fill="#3C3C3B"/>
<path d="M1010.51 603.464C1010.31 605.308 1010.84 607.157 1011.98 608.616C1013.13 610.074 1014.8 611.026 1016.64 611.268H1057.67C1059.5 611.026 1061.18 610.074 1062.32 608.616C1063.47 607.157 1063.99 605.308 1063.79 603.464C1063.98 601.628 1063.45 599.789 1062.3 598.34C1061.16 596.891 1059.5 595.945 1057.67 595.703H1016.64C1014.81 595.945 1013.14 596.891 1012 598.34C1010.85 599.789 1010.32 601.628 1010.51 603.464Z" fill="#B17F4A"/>
<path d="M1162.84 691.643C1182.91 691.643 1199.17 675.377 1199.17 655.312C1199.17 635.247 1182.91 618.981 1162.84 618.981C1142.78 618.981 1126.51 635.247 1126.51 655.312C1126.51 675.377 1142.78 691.643 1162.84 691.643Z" fill="white"/>
<path d="M1155.29 675.495C1169.56 675.495 1181.13 663.925 1181.13 649.652C1181.13 635.379 1169.56 623.809 1155.29 623.809C1141.02 623.809 1129.45 635.379 1129.45 649.652C1129.45 663.925 1141.02 675.495 1155.29 675.495Z" fill="#3C3C3B"/>
<path d="M1136.2 603.464C1136.01 605.312 1136.55 607.161 1137.7 608.618C1138.85 610.076 1140.53 611.026 1142.37 611.268H1183.4C1185.23 611.016 1186.9 610.062 1188.04 608.605C1189.18 607.149 1189.72 605.306 1189.52 603.464C1189.7 601.63 1189.17 599.797 1188.02 598.35C1186.88 596.903 1185.22 595.955 1183.4 595.703H1142.37C1140.54 595.945 1138.87 596.889 1137.72 598.337C1136.57 599.785 1136.02 601.624 1136.2 603.464Z" fill="#B17F4A"/>
<path d="M1087.49 729.406L1077.92 728.567C1075.53 728.368 1073.21 727.615 1071.16 726.366C1069.1 725.117 1067.37 723.407 1066.09 721.372C1064.81 719.337 1064.02 717.032 1063.79 714.64C1063.56 712.248 1063.89 709.834 1064.75 707.59L1077.33 673.399C1078.51 670.214 1080.7 667.503 1083.56 665.684C1086.43 663.865 1089.81 663.038 1093.19 663.33C1097.28 663.692 1101.06 665.664 1103.69 668.811C1106.33 671.957 1107.61 676.022 1107.25 680.111L1104.14 715.142C1104 717.177 1103.45 719.164 1102.54 720.986C1101.62 722.809 1100.35 724.431 1098.8 725.758C1097.25 727.085 1095.45 728.091 1093.51 728.717C1091.57 729.344 1089.52 729.578 1087.49 729.406Z" fill="#A48A7B"/>
<path d="M1079.14 779.961C1097.26 779.961 1111.94 774.796 1111.94 768.424C1111.94 762.052 1097.26 756.887 1079.14 756.887C1061.02 756.887 1046.33 762.052 1046.33 768.424C1046.33 774.796 1061.02 779.961 1079.14 779.961Z" fill="#39130D"/>
<path d="M1571.17 1562.86L1599.67 1721.2C1599.67 1721.2 1599.71 1730.75 1582.49 1737.49C1571.13 1741.94 1560.59 1719.32 1556.55 1710.7C1552.51 1702.09 1505.07 1590.01 1505.07 1590.01L1571.17 1562.86Z" fill="#D9CABF"/>
<path d="M1530.6 1579.52C1530.6 1579.52 1543.61 1591.01 1547.92 1600.32C1552.23 1609.63 1553.36 1662.3 1553.36 1662.3C1553.36 1662.3 1554.46 1674.84 1547.43 1676.38C1540.41 1677.92 1532.69 1674.93 1526.86 1662.73C1521.03 1650.52 1522.04 1641.88 1518.9 1636.26L1495.35 1593.98L1530.6 1579.52Z" fill="#B39F8B"/>
<path d="M1459.23 1052.7L1514.91 1293.22C1514.91 1293.22 1489.52 1365.73 1441.14 1374.99C1392.77 1384.25 1299.74 1318.58 1299.74 1318.58L1271.23 1036.35C1271.23 1036.35 1327.21 985.576 1381.82 989.292C1418.09 991.795 1459.23 1052.7 1459.23 1052.7Z" fill="#3C3C3B"/>
<path d="M1583.32 1557.88L1513.83 1289.02C1513.83 1289.02 1484.39 1250.67 1437.58 1253.26C1390.76 1255.85 1299.74 1318.58 1299.74 1318.58L1336.04 1659.39L1583.32 1557.88Z" fill="#3C3C3B"/>
<path d="M511.035 1535.14L454.063 1685.58C454.063 1685.58 452.259 1694.98 467.949 1704.75C478.312 1711.17 492.786 1690.87 498.324 1683.15C503.861 1675.43 571.07 1574.07 571.07 1574.07L511.035 1535.14Z" fill="#D9CABF"/>
<path d="M547.872 1558.88C547.872 1558.88 533.021 1567.65 526.895 1576.17C520.77 1584.69 510.114 1636.08 510.114 1636.08C510.114 1636.08 506.884 1648.2 513.345 1651.01C519.805 1653.82 528.112 1652.31 536.083 1641.36C544.054 1630.41 544.474 1621.77 548.669 1616.78L579.546 1579.57L547.872 1558.88Z" fill="#B39F8B"/>
<path d="M714.381 1054.02L615.666 1280.27C615.666 1280.27 627.371 1356.21 673.226 1374.16C719.08 1392.12 822.578 1344.58 822.578 1344.58L902.289 1072.31C902.289 1072.31 856.56 1012.15 802.189 1005.81C765.984 1001.66 714.381 1054.02 714.381 1054.02Z" fill="#3C3C3B"/>
<path d="M500.002 1527.96L617.47 1276.25C617.47 1276.25 653.382 1243.94 698.943 1255.06C744.504 1266.18 822.536 1344.5 822.536 1344.5L724.45 1672.91L500.002 1527.96Z" fill="#3C3C3B"/>
<path d="M783.701 2682.5V2556.25C783.701 2550.75 782.535 2546 780.201 2542C777.868 2538 774.951 2536 771.451 2536V2530.5C772.618 2530.33 781.701 2525.25 798.701 2515.25C799.868 2515.58 801.285 2516.08 802.951 2516.75C804.618 2517.25 806.785 2518.83 809.451 2521.5C812.285 2524.17 813.701 2527.25 813.701 2530.75C814.701 2530.25 817.535 2528.67 822.201 2526C834.535 2519 842.118 2515.5 844.951 2515.5C847.951 2515.5 851.201 2517 854.701 2520C858.368 2523 861.118 2526.58 862.951 2530.75C863.285 2530.58 866.701 2528.83 873.201 2525.5C886.201 2518.83 894.035 2515.5 896.701 2515.5C902.035 2515.5 907.035 2519 911.701 2526C916.368 2533 918.701 2539.42 918.701 2545.25V2671C918.701 2680.17 922.785 2685.58 930.951 2687.25V2692.75L903.701 2708C900.035 2706.5 896.618 2704.08 893.451 2700.75C890.285 2697.25 888.701 2694 888.701 2691V2568.5C888.701 2558.5 887.035 2551.58 883.701 2547.75C880.535 2543.75 874.701 2541.58 866.201 2541.25V2671C866.201 2680.17 870.285 2685.58 878.451 2687.25V2692.75L851.201 2708C847.535 2706.5 844.118 2704.08 840.951 2700.75C837.785 2697.25 836.201 2694 836.201 2691V2568.5C836.201 2558 834.618 2550.83 831.451 2547C828.451 2543.17 822.535 2541.25 813.701 2541.25V2669.5C813.701 2675.67 814.368 2680.08 815.701 2682.75C817.035 2685.42 819.785 2686.75 823.951 2686.75V2694.5L772.701 2716L768.701 2708C772.368 2708 775.868 2705.83 779.201 2701.5C782.201 2697.33 783.701 2691 783.701 2682.5ZM943.613 2671.5V2538.5C943.613 2537.33 953.113 2533.25 972.113 2526.25C991.113 2519.08 1002.03 2515.5 1004.86 2515.5C1007.7 2515.5 1011.95 2518.92 1017.61 2525.75C1023.45 2532.58 1026.36 2538.75 1026.36 2544.25V2684.75C1026.36 2686.08 1017.2 2690.33 998.863 2697.5C980.697 2704.5 969.53 2708 965.363 2708C961.363 2708 956.697 2704.42 951.363 2697.25C946.197 2690.08 943.613 2681.5 943.613 2671.5ZM986.363 2685C989.53 2685 992.78 2683.67 996.113 2681V2557.25C996.113 2544.92 991.863 2538.75 983.363 2538.75C980.03 2538.75 976.78 2540 973.613 2542.5V2666.5C973.613 2678.83 977.863 2685 986.363 2685ZM1051.28 2679.5V2556.25C1051.28 2550.75 1050.11 2546 1047.78 2542C1045.45 2538 1042.53 2536 1039.03 2536V2530.5C1040.2 2530.33 1049.28 2525.25 1066.28 2515.25C1067.45 2515.58 1068.86 2516.08 1070.53 2516.75C1072.2 2517.25 1074.36 2518.83 1077.03 2521.5C1079.86 2524.17 1081.28 2527.25 1081.28 2530.75C1082.28 2530.25 1085.11 2528.67 1089.78 2526C1102.11 2519 1109.45 2515.5 1111.78 2515.5C1117.11 2515.5 1122.11 2519 1126.78 2526C1131.45 2533 1133.78 2539.42 1133.78 2545.25V2671C1133.78 2680.17 1137.86 2685.58 1146.03 2687.25V2692.75L1118.78 2708C1115.11 2706.5 1111.7 2704.08 1108.53 2700.75C1105.36 2697.25 1103.78 2694 1103.78 2691V2568.5C1103.78 2558 1102.2 2550.83 1099.03 2547C1096.03 2543.17 1090.11 2541.25 1081.28 2541.25V2669.5C1081.28 2676.17 1082.11 2680.75 1083.78 2683.25C1085.45 2685.58 1088.03 2686.75 1091.53 2686.75V2694.5L1040.28 2716L1036.28 2708C1039.61 2708 1042.86 2706 1046.03 2702C1049.53 2697.33 1051.28 2689.83 1051.28 2679.5ZM1158.7 2679.75V2564.5C1158.7 2557.83 1151.37 2554.5 1136.7 2554.5V2547.5C1158.37 2536.17 1177.7 2525.5 1194.7 2515.5L1198.7 2523.5C1198.03 2523.83 1197.12 2524.5 1195.95 2525.5C1194.78 2526.33 1193.28 2529.08 1191.45 2533.75C1189.62 2538.25 1188.7 2543.83 1188.7 2550.5V2681.5C1188.7 2694.5 1187.95 2706.58 1186.45 2717.75C1184.95 2729.08 1183.12 2737.75 1180.95 2743.75C1178.78 2749.92 1176.53 2753 1174.2 2753C1170.03 2753 1164.62 2751.75 1157.95 2749.25C1151.45 2746.75 1145.95 2744.25 1141.45 2741.75L1134.7 2738V2730.5H1143.2C1149.03 2730.5 1153.03 2726.67 1155.2 2719C1157.53 2711.33 1158.7 2698.25 1158.7 2679.75ZM1213.63 2682.5V2539C1213.63 2537.83 1223.13 2533.75 1242.13 2526.75C1261.13 2519.58 1272.05 2516 1274.88 2516C1277.72 2516 1281.97 2519.42 1287.63 2526.25C1293.47 2533.08 1296.38 2539.25 1296.38 2544.75V2610.25H1308.63V2616.25L1296.38 2622.5V2671C1296.38 2680.17 1300.38 2685.58 1308.38 2687.25V2692.75L1281.13 2708C1277.47 2706.5 1274.05 2704.08 1270.88 2700.75C1267.72 2697.25 1266.13 2694 1266.13 2691V2622.5H1243.63V2669.5C1243.63 2675.67 1244.3 2680.08 1245.63 2682.75C1246.97 2685.42 1249.72 2686.75 1253.88 2686.75V2694.5L1202.63 2716L1198.63 2708C1202.3 2708 1205.8 2705.83 1209.13 2701.5C1212.13 2697.33 1213.63 2691 1213.63 2682.5ZM1253.38 2539.25C1250.05 2539.25 1246.8 2540.5 1243.63 2543V2616.75L1258.38 2610.25H1266.13V2557.75C1266.13 2545.42 1261.88 2539.25 1253.38 2539.25Z" fill="white"/>
</g>
<defs>
<filter id="filter0_i_441_1906" x="0" y="0" width="2080" height="2953" filterUnits="userSpaceOnUse" color-interpolation-filters="sRGB">
<feFlood flood-opacity="0" result="BackgroundImageFix"/>
<feBlend mode="normal" in="SourceGraphic" in2="BackgroundImageFix" result="shape"/>
<feColorMatrix in="SourceAlpha" type="matrix" values="0 0 0 0 0 0 0 0 0 0 0 0 0 0 0 0 0 0 127 0" result="hardAlpha"/>
<feOffset dy="4"/>
<feComposite in2="hardAlpha" operator="arithmetic" k2="-1" k3="1"/>
<feColorMatrix type="matrix" values="0 0 0 0 0 0 0 0 0 0 0 0 0 0 0 0 0 0 0.25 0"/>
<feBlend mode="normal" in2="shape" result="effect1_innerShadow_441_1906"/>
</filter>
<linearGradient id="paint0_linear_441_1906" x1="1132.47" y1="951.879" x2="1128.82" y2="806.428" gradientUnits="userSpaceOnUse">
<stop stop-color="#DADADA"/>
<stop offset="1" stop-color="#B2B2B2"/>
</linearGradient>
</defs>
</svg>
