<svg width="2080" height="2953" viewBox="0 0 2080 2953" fill="none" xmlns="http://www.w3.org/2000/svg">
<g filter="url(#filter0_i_441_1753)">
<rect width="2080" height="2953" fill="#1BAFB5"/>
<path d="M734.157 691.704L592.569 917.945C592.569 917.945 585.526 992.602 622.703 1009C659.88 1025.39 764.292 975.477 764.292 975.477L899.337 704.365C899.337 704.365 872.013 646.255 824.445 641.599C792.848 638.482 734.157 691.704 734.157 691.704Z" fill="#093B3D"/>
<path d="M1486.67 1268.87L1518.99 1418.95C1518.99 1418.95 1519.69 1427.88 1507.14 1432.42C1498.87 1435.42 1489.4 1413.18 1485.78 1404.95C1482.16 1396.71 1438.71 1287.57 1438.71 1287.57L1486.67 1268.87Z" fill="#F7BC99"/>
<path d="M1457.26 1280.22C1462.96 1286.61 1467.82 1293.7 1471.73 1301.31C1475.58 1310.55 1480.05 1359.46 1480.05 1359.46C1480.05 1359.46 1481.62 1371.2 1476.58 1371.97C1471.54 1372.74 1465.34 1369.16 1460.11 1357.27C1454.88 1345.37 1455.07 1337.37 1452.41 1331.83L1431.79 1290.19L1457.26 1280.22Z" fill="#F59E6C"/>
<path d="M1363.78 716.41L1429.67 975.054C1429.67 975.054 1413.62 1048.17 1373.21 1052.6C1332.8 1057.02 1248.59 977.555 1248.59 977.555L1202.6 678.158C1202.6 678.158 1246.28 631.131 1293.01 641.214C1324.06 647.871 1363.78 716.41 1363.78 716.41Z" fill="#093B3D"/>
<path d="M1508.26 1260.48L1428.4 970.512C1428.4 970.512 1400.42 926.987 1360.78 924.332C1321.14 921.677 1248.59 977.439 1248.59 977.439L1305.74 1339.18L1508.26 1260.48Z" fill="#093B3D"/>
<path d="M930.048 738.46L1174.82 734.227L1211.03 650.026C1211.03 650.026 1211.8 623.896 1190.29 618.431L1073.6 588.838C1061.15 585.74 1048.14 585.74 1035.69 588.838L922.004 616.623C898.451 622.434 894.141 659.839 894.141 659.839L930.048 738.46Z" fill="#614A3A"/>
<path d="M1129.83 613.891C1129.83 613.891 1105.31 651.335 1058.28 651.335C1010.02 651.335 986.777 610.351 986.777 610.351L992.358 512.296H1124.21L1129.83 613.891Z" fill="#F7BC99"/>
<path d="M1245.28 1650.97C1245.28 1650.97 1235.09 1716.16 1168.74 1716.16C1108.08 1716.16 1092.15 1650.97 1092.15 1650.97L1072.06 1348.49C1072.06 1348.49 1102.58 1270.53 1164.7 1270.53C1231.93 1270.53 1257.37 1348.49 1257.37 1348.49L1245.28 1650.97Z" fill="#614A3A"/>
<path d="M1144.03 2063.85H1197.37C1213.28 2063.85 1228.54 2070.17 1239.8 2081.42C1251.05 2092.68 1257.37 2107.94 1257.37 2123.85V2191H1084.18V2123.85C1084.18 2107.94 1090.51 2092.68 1101.76 2081.42C1113.01 2070.17 1128.27 2063.85 1144.18 2063.85H1144.03Z" fill="#39130D"/>
<path d="M1227.27 2035.41H1105.43L1092.23 1659.32C1092.23 1659.32 1111.47 1583.24 1168.81 1583.66C1228.31 1584.09 1245.36 1659.32 1245.36 1659.32L1227.27 2035.41Z" fill="#614A3A"/>
<path d="M1242.4 1861.05H1095.19L1105.58 2157.48L1226.66 2157.91L1242.4 1861.05Z" fill="#39130D"/>
<path d="M1034.96 1653.12C1034.96 1653.12 1017.91 1736.44 955.372 1736.67C884.712 1736.94 881.864 1653.12 881.864 1653.12L863.66 1350.65C863.66 1350.65 872.512 1265.79 958.412 1265.79C1022.68 1265.79 1051.28 1350.65 1051.28 1350.65L1034.96 1653.12Z" fill="#614A3A"/>
<path d="M923.814 2063.74H977.155C993.054 2063.74 1008.3 2070.05 1019.55 2081.28C1030.8 2092.52 1037.13 2107.76 1037.15 2123.65V2191H863.969V2123.65C863.969 2107.74 870.29 2092.48 881.542 2081.23C892.794 2069.98 908.055 2063.66 923.968 2063.66L923.814 2063.74Z" fill="#39130D"/>
<path d="M1017.68 2035.41H891.218L881.828 1661.36C881.828 1661.36 891.988 1578.12 958.376 1578.12C1017.64 1578.12 1034.92 1661.36 1034.92 1661.36L1017.68 2035.41Z" fill="#614A3A"/>
<path d="M883.945 1860.93H1031.15L1017.41 2158.02H891.066L883.945 1860.93Z" fill="#39130D"/>
<path d="M1325.1 1623.91H790.578L845.228 1152.15C845.228 1105.97 872.668 1068.64 906.497 1068.64H1206.68C1239.4 1068.64 1265.95 1104.78 1265.95 1149.46L1325.1 1623.91Z" fill="#6C190B"/>
<path d="M1252.37 1084.77L1058.32 1142.95L864.279 1084.77C862.087 1084.77 859.916 1084.35 857.89 1083.51C855.864 1082.68 854.022 1081.45 852.47 1079.9C850.919 1078.35 849.688 1076.51 848.848 1074.49C848.009 1072.47 847.576 1070.3 847.576 1068.11V1059.25C847.576 1057.06 848.009 1054.89 848.848 1052.87C849.688 1050.84 850.919 1049.01 852.47 1047.46C854.022 1045.91 855.864 1044.68 857.89 1043.85C859.916 1043.01 862.087 1042.59 864.279 1042.59H1252.37C1256.79 1042.59 1261.03 1044.35 1264.15 1047.47C1267.28 1050.6 1269.03 1054.83 1269.03 1059.25V1068.11C1269.03 1072.52 1267.28 1076.76 1264.15 1079.89C1261.03 1083.01 1256.79 1084.77 1252.37 1084.77Z" fill="#BF7A0B"/>
<path d="M1151.53 821.237H952.795V609.08L1055.28 581.834L1151.53 608.619V821.237Z" fill="#F7BC99"/>
<path d="M1242.28 1056.75H879.672C876.277 1056.75 872.916 1056.08 869.781 1054.78C866.645 1053.48 863.797 1051.58 861.398 1049.18C859 1046.77 857.098 1043.92 855.802 1040.79C854.507 1037.65 853.843 1034.29 853.848 1030.89L798.506 624.704H947.291L1057.67 697.475L1167.97 624.704C1182.25 624.704 1304.41 624.704 1304.41 624.704L1268.3 1030.89C1268.3 1034.3 1267.63 1037.68 1266.33 1040.83C1265.02 1043.98 1263.1 1046.84 1260.68 1049.24C1258.26 1051.65 1255.39 1053.55 1252.23 1054.84C1249.08 1056.13 1245.69 1056.78 1242.28 1056.75Z" fill="#6C190B"/>
<path d="M880.904 624.704L941.25 798.763C945.044 809.318 952.004 818.445 961.179 824.898C970.353 831.352 981.295 834.817 992.512 834.821H1112.74C1124.08 834.819 1135.14 831.287 1144.38 824.715C1153.62 818.143 1160.59 808.857 1164.31 798.147L1225.54 626.282L1153.34 612.043L1130.95 626.59L982.776 627.86L957.991 610.504L880.904 624.704Z" fill="#614A3A"/>
<path d="M999.593 863.53H1113.9C1113.9 863.53 1113.36 914.943 1113.9 932.068C1114.24 944.69 1111.93 951.656 1100.43 970.166C1089.51 987.127 1074.46 1001.04 1056.71 1010.61C1056.71 1010.61 1022.07 989.369 1011.79 969.243C1001.52 949.116 999.208 946.153 999.439 932.029C999.901 914.943 999.593 863.53 999.593 863.53Z" fill="#F2BA41"/>
<path d="M1050.39 863.529H1037.69V996.988C1042.47 1000.84 1046.97 1003.99 1050.39 1006.38V863.529Z" fill="#C23313"/>
<path d="M1012.06 969.396C1015.51 975.498 1019.87 981.039 1024.99 985.828V863.529H1012.06V969.396Z" fill="#C23313"/>
<path d="M1088.72 985.405C1092.97 980.588 1096.83 975.44 1100.27 970.012L1101.27 968.357V863.529H1088.57L1088.72 985.405Z" fill="#C23313"/>
<path d="M1063.36 1006.99C1067.78 1004.19 1072.02 1001.11 1076.06 997.796V863.529H1063.36V1006.99Z" fill="#C23313"/>
<path d="M1059.09 565.133C1027.99 565.133 998.084 553.189 975.544 531.767C953.003 510.346 939.554 481.085 937.975 450.03L933.549 364.329C932.709 347.904 935.219 331.48 940.926 316.056C946.633 300.631 955.418 286.529 966.748 274.607C978.077 262.684 991.713 253.191 1006.83 246.704C1021.94 240.217 1038.22 236.872 1054.66 236.873H1061.86C1078.12 236.875 1094.22 240.146 1109.19 246.493C1124.17 252.84 1137.71 262.132 1149.02 273.818C1160.33 285.504 1169.17 299.344 1175.03 314.516C1180.88 329.688 1183.62 345.882 1183.09 362.135L1180.24 447.76C1179.22 479.218 1166.02 509.049 1143.41 530.951C1120.8 552.852 1090.57 565.109 1059.09 565.133Z" fill="#F7BC99"/>
<path d="M1075.95 257.23C1075.95 257.23 1031 307.874 1007.94 319.419C980.002 333.465 943.826 350.975 943.826 350.975L945.096 484.857C945.096 484.857 889.292 520.839 879.67 509.756C870.049 498.673 894.334 472.081 894.334 472.081C894.334 472.081 854.732 472.966 854.693 448.991C854.693 438.755 889.985 411.162 889.985 411.162C889.985 411.162 864.93 222.596 1054.66 222.596C1235.05 222.596 1219.04 415.626 1219.04 415.626C1219.04 415.626 1266.03 450.915 1254.48 457.958C1242.94 465 1211.03 464.384 1211.03 464.384C1211.03 464.384 1253.37 502.598 1241.28 505.792C1229.2 508.986 1172.01 479.162 1172.01 479.162L1170.74 335.466C1170.74 335.466 1129.36 327.231 1114.39 313.877C1092 293.905 1075.95 257.23 1075.95 257.23Z" fill="#403126"/>
<path d="M996.86 436.061C1015.63 436.061 1030.84 420.847 1030.84 402.08C1030.84 383.313 1015.63 368.1 996.86 368.1C978.092 368.1 962.877 383.313 962.877 402.08C962.877 420.847 978.092 436.061 996.86 436.061Z" fill="white"/>
<path d="M996.859 426.248C1010.21 426.248 1021.03 415.428 1021.03 402.08C1021.03 388.733 1010.21 377.913 996.859 377.913C983.51 377.913 972.689 388.733 972.689 402.08C972.689 415.428 983.51 426.248 996.859 426.248Z" fill="#3C3C3B"/>
<path d="M965.802 365.598C965.675 367.414 966.271 369.206 967.461 370.583C968.651 371.96 970.337 372.811 972.152 372.949H1014.49C1016.3 372.811 1017.99 371.96 1019.18 370.583C1020.37 369.206 1020.96 367.414 1020.84 365.598C1020.96 363.787 1020.37 361.999 1019.17 360.628C1017.98 359.257 1016.3 358.415 1014.49 358.287H972.152C970.345 358.425 968.664 359.27 967.475 360.638C966.287 362.007 965.685 363.789 965.802 365.598Z" fill="#403126"/>
<path d="M1105.04 505.831H1007.94C1006.05 505.831 1004.52 507.364 1004.52 509.256V510.295C1004.52 512.186 1006.05 513.72 1007.94 513.72H1105.04C1106.93 513.72 1108.47 512.186 1108.47 510.295V509.256C1108.47 507.364 1106.93 505.831 1105.04 505.831Z" fill="#403126"/>
<path d="M1116.16 437.908C1134.93 437.908 1150.15 422.694 1150.15 403.927C1150.15 385.16 1134.93 369.947 1116.16 369.947C1097.4 369.947 1082.18 385.16 1082.18 403.927C1082.18 422.694 1097.4 437.908 1116.16 437.908Z" fill="white"/>
<path d="M1116.17 428.095C1129.52 428.095 1140.34 417.275 1140.34 403.928C1140.34 390.58 1129.52 379.76 1116.17 379.76C1102.82 379.76 1092 390.58 1092 403.928C1092 417.275 1102.82 428.095 1116.17 428.095Z" fill="#3C3C3B"/>
<path d="M1147.18 362.712C1147.3 364.521 1146.7 366.303 1145.51 367.672C1144.32 369.041 1142.64 369.886 1140.83 370.024H1098.5C1096.69 369.886 1095.01 369.041 1093.82 367.672C1092.63 366.303 1092.03 364.521 1092.15 362.712C1092.03 360.903 1092.63 359.121 1093.82 357.752C1095.01 356.383 1096.69 355.538 1098.5 355.4H1140.83C1142.64 355.538 1144.32 356.383 1145.51 357.752C1146.7 359.121 1147.3 360.903 1147.18 362.712Z" fill="#403126"/>
<path d="M1060.55 480.24C1060.55 480.24 1037.46 463.538 1020.61 466.54C1009.48 468.541 993.242 494.324 993.242 494.324L1127.1 492.169C1127.1 492.169 1105.85 466.155 1090.3 466.232C1074.75 466.309 1060.55 480.24 1060.55 480.24Z" fill="#403126"/>
<path d="M1058.98 396.616H1057.63C1049.98 396.616 1043.77 402.818 1043.77 410.47V469.964C1043.77 477.616 1049.98 483.818 1057.63 483.818H1058.98C1066.63 483.818 1072.83 477.616 1072.83 469.964V410.47C1072.83 402.818 1066.63 396.616 1058.98 396.616Z" fill="#F59E6C"/>
<path d="M1168.84 947.519L1018.19 909.875C1001.92 905.81 985.431 915.703 981.365 931.971L924.564 1159.27C920.498 1175.54 930.392 1192.02 946.662 1196.09L1097.32 1233.73C1113.59 1237.79 1130.07 1227.9 1134.14 1211.63L1190.94 984.337C1195.01 968.069 1185.11 951.585 1168.84 947.519Z" fill="#3B471A"/>
<path d="M874.281 1048.4C874.281 1048.4 1033 1137.53 1037.96 1106.13C1042.92 1074.72 971.226 1048.13 971.226 1048.13C971.226 1048.13 1079.64 1099.24 1087.84 1075.07C1095.11 1053.64 1003.17 1027.08 1002.44 1027.12C1001.71 1027.16 1110.2 1050.63 1113.66 1025.39C1116.7 1004.38 985.197 995.411 985.197 995.411C985.197 995.411 1035.5 983.635 1032.73 966.549C1029.42 946.461 877.244 975.977 877.244 975.977C877.244 975.977 858.001 1000.84 857.424 1010.84C856.847 1020.85 874.281 1048.4 874.281 1048.4Z" fill="#F7BC99"/>
<path d="M900.498 1142.71L608.886 1069.03C608.886 1069.03 564.666 1042.09 561.164 1002.57C557.662 963.047 611.503 889.083 611.503 889.083L975.753 935.173L900.498 1142.71Z" fill="#093B3D"/>
<path d="M562.266 2682.5V2556.25C562.266 2550.75 561.099 2546 558.766 2542C556.432 2538 553.516 2536 550.016 2536V2530.5C551.182 2530.33 560.266 2525.25 577.266 2515.25C578.432 2515.58 579.849 2516.08 581.516 2516.75C583.182 2517.25 585.349 2518.83 588.016 2521.5C590.849 2524.17 592.266 2527.25 592.266 2530.75C593.266 2530.25 596.099 2528.67 600.766 2526C613.099 2519 620.682 2515.5 623.516 2515.5C626.516 2515.5 629.766 2517 633.266 2520C636.932 2523 639.682 2526.58 641.516 2530.75C641.849 2530.58 645.266 2528.83 651.766 2525.5C664.766 2518.83 672.599 2515.5 675.266 2515.5C680.599 2515.5 685.599 2519 690.266 2526C694.932 2533 697.266 2539.42 697.266 2545.25V2671C697.266 2680.17 701.349 2685.58 709.516 2687.25V2692.75L682.266 2708C678.599 2706.5 675.182 2704.08 672.016 2700.75C668.849 2697.25 667.266 2694 667.266 2691V2568.5C667.266 2558.5 665.599 2551.58 662.266 2547.75C659.099 2543.75 653.266 2541.58 644.766 2541.25V2671C644.766 2680.17 648.849 2685.58 657.016 2687.25V2692.75L629.766 2708C626.099 2706.5 622.682 2704.08 619.516 2700.75C616.349 2697.25 614.766 2694 614.766 2691V2568.5C614.766 2558 613.182 2550.83 610.016 2547C607.016 2543.17 601.099 2541.25 592.266 2541.25V2669.5C592.266 2675.67 592.932 2680.08 594.266 2682.75C595.599 2685.42 598.349 2686.75 602.516 2686.75V2694.5L551.266 2716L547.266 2708C550.932 2708 554.432 2705.83 557.766 2701.5C560.766 2697.33 562.266 2691 562.266 2682.5ZM722.178 2671.5V2538.5C722.178 2537.33 731.678 2533.25 750.678 2526.25C769.678 2519.08 780.594 2515.5 783.428 2515.5C786.261 2515.5 790.511 2518.92 796.178 2525.75C802.011 2532.58 804.928 2538.75 804.928 2544.25V2684.75C804.928 2686.08 795.761 2690.33 777.428 2697.5C759.261 2704.5 748.094 2708 743.928 2708C739.928 2708 735.261 2704.42 729.928 2697.25C724.761 2690.08 722.178 2681.5 722.178 2671.5ZM764.928 2685C768.094 2685 771.344 2683.67 774.678 2681V2557.25C774.678 2544.92 770.428 2538.75 761.928 2538.75C758.594 2538.75 755.344 2540 752.178 2542.5V2666.5C752.178 2678.83 756.428 2685 764.928 2685ZM845.094 2628.25C840.927 2628.25 837.344 2625.08 834.344 2618.75C831.344 2612.42 829.844 2604.67 829.844 2595.5V2543.5C829.844 2540.33 838.594 2534.92 856.094 2527.25C873.594 2519.42 883.677 2515.5 886.344 2515.5C888.344 2515.5 891.177 2518.83 894.844 2525.5C895.677 2527.17 896.844 2529.42 898.344 2532.25C900.01 2535.08 901.344 2537.42 902.344 2539.25C904.51 2543.25 907.26 2545.25 910.594 2545.25V2550.25C907.927 2551.42 904.344 2553.17 899.844 2555.5C889.344 2561.33 883.677 2564.25 882.844 2564.25C880.344 2564.25 877.177 2559.33 873.344 2549.5C869.677 2539.67 866.677 2534.75 864.344 2534.75C861.344 2534.75 859.844 2537.25 859.844 2542.25V2598C859.844 2604.67 861.344 2608 864.344 2608C865.01 2608 870.177 2605.83 879.844 2601.5C889.51 2597.17 895.344 2595 897.344 2595C901.344 2595 904.844 2598.25 907.844 2604.75C911.01 2611.08 912.594 2619.25 912.594 2629.25V2682.5C912.594 2685.67 903.01 2691.17 883.844 2699C864.844 2706.67 853.927 2710.5 851.094 2710.5C849.927 2710.5 848.594 2709.08 847.094 2706.25C845.594 2703.42 843.594 2699.42 841.094 2694.25C838.76 2688.92 836.594 2684.5 834.594 2681C832.76 2677.5 830.177 2675.75 826.844 2675.75V2670.75C829.51 2669.58 833.01 2667.83 837.344 2665.5C848.01 2659.67 853.76 2656.75 854.594 2656.75C857.094 2656.75 860.594 2662.5 865.094 2674C869.76 2685.5 873.26 2691.25 875.594 2691.25C877.26 2691.25 878.844 2690.58 880.344 2689.25C881.844 2687.92 882.594 2686.08 882.594 2683.75V2627.5C882.594 2620 880.51 2616.25 876.344 2616.25C875.01 2616.25 869.76 2618.25 860.594 2622.25C851.427 2626.25 846.26 2628.25 845.094 2628.25ZM954.045 2682.5V2550L961.795 2542.5H946.045C935.878 2542.5 930.128 2545.25 928.795 2550.75H923.295L909.045 2530.25C911.045 2527.08 913.628 2524.25 916.795 2521.75C919.962 2519.25 923.045 2518 926.045 2518H992.045C1002.21 2518 1007.96 2515.25 1009.29 2509.75H1014.79L1029.04 2530.25C1027.04 2533.42 1024.46 2536.25 1021.29 2538.75C1018.13 2541.25 1015.04 2542.5 1012.04 2542.5H984.045V2669.5C984.045 2675.67 984.712 2680.08 986.045 2682.75C987.378 2685.42 990.128 2686.75 994.295 2686.75V2694.5L943.045 2716L939.045 2708C942.712 2708 946.212 2705.83 949.545 2701.5C952.545 2697.33 954.045 2691 954.045 2682.5ZM1027.35 2682.5V2539C1027.35 2537.83 1036.85 2533.75 1055.85 2526.75C1074.85 2519.58 1085.77 2516 1088.6 2516C1091.44 2516 1095.69 2519.42 1101.35 2526.25C1107.19 2533.08 1110.1 2539.25 1110.1 2544.75V2610.25H1122.35V2616.25L1110.1 2622.5V2671C1110.1 2680.17 1114.1 2685.58 1122.1 2687.25V2692.75L1094.85 2708C1091.19 2706.5 1087.77 2704.08 1084.6 2700.75C1081.44 2697.25 1079.85 2694 1079.85 2691V2622.5H1057.35V2669.5C1057.35 2675.67 1058.02 2680.08 1059.35 2682.75C1060.69 2685.42 1063.44 2686.75 1067.6 2686.75V2694.5L1016.35 2716L1012.35 2708C1016.02 2708 1019.52 2705.83 1022.85 2701.5C1025.85 2697.33 1027.35 2691 1027.35 2682.5ZM1067.1 2539.25C1063.77 2539.25 1060.52 2540.5 1057.35 2543V2616.75L1072.1 2610.25H1079.85V2557.75C1079.85 2545.42 1075.6 2539.25 1067.1 2539.25ZM1150.27 2628.25C1146.1 2628.25 1142.52 2625.08 1139.52 2618.75C1136.52 2612.42 1135.02 2604.67 1135.02 2595.5V2543.5C1135.02 2540.33 1143.77 2534.92 1161.27 2527.25C1178.77 2519.42 1188.85 2515.5 1191.52 2515.5C1193.52 2515.5 1196.35 2518.83 1200.02 2525.5C1200.85 2527.17 1202.02 2529.42 1203.52 2532.25C1205.19 2535.08 1206.52 2537.42 1207.52 2539.25C1209.69 2543.25 1212.44 2545.25 1215.77 2545.25V2550.25C1213.1 2551.42 1209.52 2553.17 1205.02 2555.5C1194.52 2561.33 1188.85 2564.25 1188.02 2564.25C1185.52 2564.25 1182.35 2559.33 1178.52 2549.5C1174.85 2539.67 1171.85 2534.75 1169.52 2534.75C1166.52 2534.75 1165.02 2537.25 1165.02 2542.25V2598C1165.02 2604.67 1166.52 2608 1169.52 2608C1170.19 2608 1175.35 2605.83 1185.02 2601.5C1194.69 2597.17 1200.52 2595 1202.52 2595C1206.52 2595 1210.02 2598.25 1213.02 2604.75C1216.19 2611.08 1217.77 2619.25 1217.77 2629.25V2682.5C1217.77 2685.67 1208.19 2691.17 1189.02 2699C1170.02 2706.67 1159.1 2710.5 1156.27 2710.5C1155.1 2710.5 1153.77 2709.08 1152.27 2706.25C1150.77 2703.42 1148.77 2699.42 1146.27 2694.25C1143.94 2688.92 1141.77 2684.5 1139.77 2681C1137.94 2677.5 1135.35 2675.75 1132.02 2675.75V2670.75C1134.69 2669.58 1138.19 2667.83 1142.52 2665.5C1153.19 2659.67 1158.94 2656.75 1159.77 2656.75C1162.27 2656.75 1165.77 2662.5 1170.27 2674C1174.94 2685.5 1178.44 2691.25 1180.77 2691.25C1182.44 2691.25 1184.02 2690.58 1185.52 2689.25C1187.02 2687.92 1187.77 2686.08 1187.77 2683.75V2627.5C1187.77 2620 1185.69 2616.25 1181.52 2616.25C1180.19 2616.25 1174.94 2618.25 1165.77 2622.25C1156.6 2626.25 1151.44 2628.25 1150.27 2628.25ZM1256.47 2628.25C1252.3 2628.25 1248.72 2625.08 1245.72 2618.75C1242.72 2612.42 1241.22 2604.67 1241.22 2595.5V2543.5C1241.22 2540.33 1249.97 2534.92 1267.47 2527.25C1284.97 2519.42 1295.05 2515.5 1297.72 2515.5C1299.72 2515.5 1302.55 2518.83 1306.22 2525.5C1307.05 2527.17 1308.22 2529.42 1309.72 2532.25C1311.39 2535.08 1312.72 2537.42 1313.72 2539.25C1315.89 2543.25 1318.64 2545.25 1321.97 2545.25V2550.25C1319.3 2551.42 1315.72 2553.17 1311.22 2555.5C1300.72 2561.33 1295.05 2564.25 1294.22 2564.25C1291.72 2564.25 1288.55 2559.33 1284.72 2549.5C1281.05 2539.67 1278.05 2534.75 1275.72 2534.75C1272.72 2534.75 1271.22 2537.25 1271.22 2542.25V2598C1271.22 2604.67 1272.72 2608 1275.72 2608C1276.39 2608 1281.55 2605.83 1291.22 2601.5C1300.89 2597.17 1306.72 2595 1308.72 2595C1312.72 2595 1316.22 2598.25 1319.22 2604.75C1322.39 2611.08 1323.97 2619.25 1323.97 2629.25V2682.5C1323.97 2685.67 1314.39 2691.17 1295.22 2699C1276.22 2706.67 1265.3 2710.5 1262.47 2710.5C1261.3 2710.5 1259.97 2709.08 1258.47 2706.25C1256.97 2703.42 1254.97 2699.42 1252.47 2694.25C1250.14 2688.92 1247.97 2684.5 1245.97 2681C1244.14 2677.5 1241.55 2675.75 1238.22 2675.75V2670.75C1240.89 2669.58 1244.39 2667.83 1248.72 2665.5C1259.39 2659.67 1265.14 2656.75 1265.97 2656.75C1268.47 2656.75 1271.97 2662.5 1276.47 2674C1281.14 2685.5 1284.64 2691.25 1286.97 2691.25C1288.64 2691.25 1290.22 2690.58 1291.72 2689.25C1293.22 2687.92 1293.97 2686.08 1293.97 2683.75V2627.5C1293.97 2620 1291.89 2616.25 1287.72 2616.25C1286.39 2616.25 1281.14 2618.25 1271.97 2622.25C1262.8 2626.25 1257.64 2628.25 1256.47 2628.25ZM1347.42 2682.5V2539C1347.42 2537.83 1356.92 2533.75 1375.92 2526.75C1394.92 2519.58 1405.84 2516 1408.67 2516C1411.51 2516 1415.76 2519.42 1421.42 2526.25C1427.26 2533.08 1430.17 2539.25 1430.17 2544.75V2610.25H1442.42V2616.25L1430.17 2622.5V2671C1430.17 2680.17 1434.17 2685.58 1442.17 2687.25V2692.75L1414.92 2708C1411.26 2706.5 1407.84 2704.08 1404.67 2700.75C1401.51 2697.25 1399.92 2694 1399.92 2691V2622.5H1377.42V2669.5C1377.42 2675.67 1378.09 2680.08 1379.42 2682.75C1380.76 2685.42 1383.51 2686.75 1387.67 2686.75V2694.5L1336.42 2716L1332.42 2708C1336.09 2708 1339.59 2705.83 1342.92 2701.5C1345.92 2697.33 1347.42 2691 1347.42 2682.5ZM1387.17 2539.25C1383.84 2539.25 1380.59 2540.5 1377.42 2543V2616.75L1392.17 2610.25H1399.92V2557.75C1399.92 2545.42 1395.67 2539.25 1387.17 2539.25ZM1489.59 2539.75C1487.92 2539.75 1486.42 2540.58 1485.09 2542.25V2610.25H1517.84V2616.25L1505.34 2622.5H1485.09V2669.5C1485.09 2675.67 1485.75 2680.08 1487.09 2682.75C1488.42 2685.42 1491.17 2686.75 1495.34 2686.75V2694.5L1444.09 2716L1440.09 2708C1443.75 2708 1447.25 2705.83 1450.59 2701.5C1453.59 2697.33 1455.09 2691 1455.09 2682.5V2538.5C1455.09 2537.33 1464.59 2533.25 1483.59 2526.25C1502.75 2519.08 1513.75 2515.5 1516.59 2515.5C1517.59 2515.5 1518.75 2517.92 1520.09 2522.75C1521.42 2527.58 1522.92 2533.42 1524.59 2540.25C1526.42 2547.08 1528.25 2552.17 1530.09 2555.5C1532.09 2558.67 1535.75 2560.25 1541.09 2560.25V2565.25C1537.42 2566.92 1531.17 2569.92 1522.34 2574.25C1513.67 2578.42 1509 2580.5 1508.34 2580.5C1505.84 2580.5 1502.67 2573.75 1498.84 2560.25C1495 2546.58 1491.92 2539.75 1489.59 2539.75Z" fill="white"/>
</g>
<defs>
<filter id="filter0_i_441_1753" x="0" y="0" width="2080" height="2953" filterUnits="userSpaceOnUse" color-interpolation-filters="sRGB">
<feFlood flood-opacity="0" result="BackgroundImageFix"/>
<feBlend mode="normal" in="SourceGraphic" in2="BackgroundImageFix" result="shape"/>
<feColorMatrix in="SourceAlpha" type="matrix" values="0 0 0 0 0 0 0 0 0 0 0 0 0 0 0 0 0 0 127 0" result="hardAlpha"/>
<feOffset dy="4"/>
<feComposite in2="hardAlpha" operator="arithmetic" k2="-1" k3="1"/>
<feColorMatrix type="matrix" values="0 0 0 0 0 0 0 0 0 0 0 0 0 0 0 0 0 0 0.25 0"/>
<feBlend mode="normal" in2="shape" result="effect1_innerShadow_441_1753"/>
</filter>
</defs>
</svg>
