<svg width="50" height="59" viewBox="0 0 50 59" fill="none" xmlns="http://www.w3.org/2000/svg">
<path fill-rule="evenodd" clip-rule="evenodd" d="M50 25C50 11.1929 38.8071 0 25 0C11.1929 0 0 11.1929 0 25C0 28.418 0.68592 31.6757 1.92762 34.6432C7.07778 48.7048 25.1314 58.3333 25.1314 58.3333C25.1314 58.3333 47.3082 46.5057 49.5152 29.924C49.8332 28.332 50 26.6855 50 25Z" fill="white"/>
<path fill-rule="evenodd" clip-rule="evenodd" d="M46.0131 29.5057L45.9904 29.6206L45.9751 29.7366C45.0508 36.7574 39.8129 43.1898 34.1606 48.128C31.4063 50.5343 28.7055 52.4542 26.6906 53.7726C26.1052 54.1556 25.5801 54.4863 25.1315 54.7618C24.8333 54.5787 24.5014 54.3713 24.1404 54.1402C22.4543 53.0611 20.1532 51.48 17.7048 49.4809C12.7149 45.407 7.52139 39.9255 5.2813 33.7422L5.25352 33.6655L5.22235 33.5902C4.16011 31.0238 3.57153 28.2035 3.57153 25.235C3.57153 13.2704 13.1654 3.57129 25.0001 3.57129C36.8348 3.57129 46.4287 13.2704 46.4287 25.235C46.4287 26.7002 46.2853 28.1279 46.0131 29.5057Z" fill="#26D8DF"/>
<path d="M34.5237 25.0004C34.5237 19.7405 30.2597 15.4766 24.9999 15.4766C19.74 15.4766 15.4761 19.7405 15.4761 25.0004C15.4761 30.2602 19.74 34.5242 24.9999 34.5242C30.2597 34.5242 34.5237 30.2602 34.5237 25.0004Z" fill="white"/>
</svg>
