<svg width="51" height="51" viewBox="0 0 51 51" fill="none" xmlns="http://www.w3.org/2000/svg">
<path d="M25.3523 50.3516C39.1594 50.3516 50.3523 39.1587 50.3523 25.3516C50.3523 11.5444 39.1594 0.351562 25.3523 0.351562C11.5452 0.351562 0.352295 11.5444 0.352295 25.3516C0.352295 39.1587 11.5452 50.3516 25.3523 50.3516Z" fill="#F27A5E" fill-opacity="0.3"/>
<path fill-rule="evenodd" clip-rule="evenodd" d="M16.4815 37.1324C13.8989 38.1644 11.4452 35.3566 12.6827 32.7853L22.6415 12.0922C23.7584 9.77135 26.9462 9.77135 28.0632 12.0922L38.0219 32.7853C39.2594 35.3566 36.8057 38.1644 34.2231 37.1324L26.803 34.1674C25.8692 33.7943 24.8354 33.7943 23.9017 34.1674L16.4815 37.1324Z" fill="white"/>
<path fill-rule="evenodd" clip-rule="evenodd" d="M14.4847 33.6526L24.4435 12.9595C24.8336 12.1489 25.8708 12.1489 26.2609 12.9595L36.2197 33.6526C36.461 34.154 36.3511 34.6483 36.0489 34.994C35.7536 35.332 35.3706 35.4372 34.9651 35.2752L27.545 32.3102C26.1348 31.7467 24.5696 31.7467 23.1594 32.3102L15.7393 35.2752C15.3338 35.4372 14.9508 35.332 14.6554 34.994C14.3533 34.6483 14.2434 34.154 14.4847 33.6526Z" fill="#EE6C4F"/>
</svg>
