<svg width="32" height="32" viewBox="0 0 32 32" fill="none" xmlns="http://www.w3.org/2000/svg">
<path d="M16.0088 5.5C16.3905 5.50183 16.7311 5.66446 17.0312 5.9043C19.975 8.25691 22.9094 10.6137 25.8613 12.9521L26.0195 13.0928C26.753 13.8314 26.6489 15.0561 25.6846 15.5312C25.4321 15.656 25.1538 15.684 24.9619 15.6953L24.9629 15.6963C24.8129 15.7052 24.6577 15.7066 24.5059 15.7061V24.8789C24.5058 25.3297 24.3818 25.7548 24.0703 26.0654C23.7591 26.3758 23.3338 26.4989 22.8828 26.499H19.0859C18.6479 26.499 18.2393 26.3635 17.9395 26.0645C17.6399 25.7655 17.5045 25.3581 17.5039 24.9209V24.9199C17.5039 23.8701 17.5175 22.8416 17.498 21.8076C17.4917 21.4645 17.4075 21.1912 17.2666 20.9766C17.1261 20.7626 16.9116 20.5789 16.6006 20.4434C16.2894 20.3078 16.0098 20.2757 15.7578 20.3184C15.5048 20.3612 15.2462 20.4854 14.9873 20.7148C14.6595 21.0051 14.5029 21.379 14.5029 21.8477V24.9072C14.5029 25.3487 14.3694 25.7619 14.0674 26.0645C13.7654 26.3667 13.3537 26.4997 12.9131 26.5H9.11621C8.6681 26.5 8.24645 26.3743 7.9375 26.0674C7.62817 25.76 7.50106 25.3397 7.50098 24.8926V15.7012H6.99023C5.89039 15.6619 5.14142 14.5492 5.6709 13.5283L5.67188 13.5273C5.80762 13.2668 6.02355 13.0678 6.19043 12.9336C6.99087 12.2898 7.79174 11.6467 8.59375 11.0049L11.002 9.08301C12.3292 8.0223 13.6564 6.96078 14.9834 5.89844H14.9844C15.2851 5.65827 15.6263 5.49824 16.0088 5.5Z" fill="#FDFCFC" stroke="white"/>
</svg>
