<svg width="32" height="32" viewBox="0 0 32 32" fill="none" xmlns="http://www.w3.org/2000/svg">
<path d="M15.4477 3.44767C14.9476 3.94777 14.6667 4.62605 14.6667 5.33329V6.66663C14.6667 7.02025 14.5262 7.35939 14.2761 7.60944C14.0261 7.85948 13.687 7.99996 13.3333 7.99996H9.33333C8.97971 7.99996 8.64057 8.14044 8.39052 8.39048C8.14048 8.64053 8 8.97967 8 9.33329V13.3333C8 13.6869 7.85952 14.0261 7.60948 14.2761C7.35943 14.5262 7.02029 14.6666 6.66667 14.6666H5.33333C4.62609 14.6666 3.94781 14.9476 3.44771 15.4477C2.94762 15.9478 2.66667 16.626 2.66667 17.3333C2.66667 18.0405 2.94762 18.7188 3.44771 19.2189C3.94781 19.719 4.62609 20 5.33333 20H6.66667C7.02029 20 7.35943 20.1404 7.60948 20.3905C7.85952 20.6405 8 20.9797 8 21.3333V25.3333C8 25.6869 8.14048 26.0261 8.39052 26.2761C8.64057 26.5262 8.97971 26.6666 9.33333 26.6666H13.3333C13.687 26.6666 14.0261 26.5262 14.2761 26.2761C14.5262 26.0261 14.6667 25.6869 14.6667 25.3333V24C14.6667 23.2927 14.9476 22.6144 15.4477 22.1143C15.9478 21.6142 16.6261 21.3333 17.3333 21.3333C18.0406 21.3333 18.7189 21.6142 19.219 22.1143C19.719 22.6144 20 23.2927 20 24V25.3333C20 25.6869 20.1405 26.0261 20.3905 26.2761C20.6406 26.5262 20.9797 26.6666 21.3333 26.6666H25.3333C25.687 26.6666 26.0261 26.5262 26.2761 26.2761C26.5262 26.0261 26.6667 25.6869 26.6667 25.3333V21.3333C26.6667 20.9797 26.5262 20.6405 26.2761 20.3905C26.0261 20.1404 25.687 20 25.3333 20H24C23.2928 20 22.6145 19.719 22.1144 19.2189C21.6143 18.7188 21.3333 18.0405 21.3333 17.3333C21.3333 16.626 21.6143 15.9478 22.1144 15.4477C22.6145 14.9476 23.2928 14.6666 24 14.6666H25.3333C25.687 14.6666 26.0261 14.5262 26.2761 14.2761C26.5262 14.0261 26.6667 13.6869 26.6667 13.3333V9.33329C26.6667 8.97967 26.5262 8.64053 26.2761 8.39048C26.0261 8.14044 25.687 7.99996 25.3333 7.99996H21.3333C20.9797 7.99996 20.6406 7.85948 20.3905 7.60944C20.1405 7.35939 20 7.02025 20 6.66663V5.33329C20 4.62605 19.719 3.94777 19.219 3.44767C18.7189 2.94758 18.0406 2.66663 17.3333 2.66663C16.6261 2.66663 15.9478 2.94758 15.4477 3.44767Z" fill="white"/>
</svg>
