<svg width="186" height="28" viewBox="0 0 186 28" fill="none" xmlns="http://www.w3.org/2000/svg">
<g filter="url(#filter0_d_501_2219)">
<path d="M184 0.523438H2L8.06667 12.0234L3.51667 23.5234H182.483L178.692 12.0234L184 0.523438Z" fill="#99B842"/>
<path d="M184 0.523438H2L8.06667 12.0234L3.51667 23.5234H182.483L178.692 12.0234L184 0.523438Z" fill="black" fill-opacity="0.2"/>
<path d="M184 0.523438H2L8.06667 12.0234L3.51667 23.5234H182.483L178.692 12.0234L184 0.523438Z" fill="black" fill-opacity="0.2"/>
<path d="M184 0.523438H2L8.06667 12.0234L3.51667 23.5234H182.483L178.692 12.0234L184 0.523438Z" fill="black" fill-opacity="0.2"/>
<mask id="mask0_501_2219" style="mask-type:alpha" maskUnits="userSpaceOnUse" x="2" y="0" width="182" height="24">
<path d="M184 0.523438H2L8.06667 11.8984L3.51667 23.2734H182.483L178.692 11.8984L184 0.523438Z" fill="#99B842"/>
<path d="M184 0.523438H2L8.06667 11.8984L3.51667 23.2734H182.483L178.692 11.8984L184 0.523438Z" fill="black" fill-opacity="0.2"/>
<path d="M184 0.523438H2L8.06667 11.8984L3.51667 23.2734H182.483L178.692 11.8984L184 0.523438Z" fill="black" fill-opacity="0.2"/>
<path d="M184 0.523438H2L8.06667 11.8984L3.51667 23.2734H182.483L178.692 11.8984L184 0.523438Z" fill="black" fill-opacity="0.2"/>
</mask>
<g mask="url(#mask0_501_2219)">
<path d="M18.6836 23.2734L25.1294 0.523438H1.62109V23.2734H18.6836Z" fill="#7A9235"/>
</g>
<path d="M75.8652 18.3896L72.7549 11.1982L71.4971 18H70.335L72.3652 7.5957L75.8652 15.874L79.3652 7.5957L81.3955 18H80.2334L78.9619 11.1982L75.8652 18.3896ZM82.9473 18V7.99219H84.1367V18H82.9473ZM90.2002 12.4424C90.8519 12.7204 91.3418 13.0895 91.6699 13.5498C92.0026 14.0101 92.1689 14.5547 92.1689 15.1836C92.1689 16.1042 91.875 16.847 91.2871 17.4121C90.7038 17.9727 89.929 18.2529 88.9629 18.2529C88.1745 18.2529 87.5137 18.0524 86.9805 17.6514C86.4473 17.2458 86.0872 16.6715 85.9004 15.9287L86.9805 15.3955C87.1263 16.0016 87.3656 16.4619 87.6982 16.7764C88.0355 17.0863 88.457 17.2412 88.9629 17.2412C89.5599 17.2412 90.043 17.0703 90.4121 16.7285C90.7812 16.3822 90.9658 15.9333 90.9658 15.3818C90.9658 14.9352 90.8359 14.5479 90.5762 14.2197C90.321 13.887 89.9336 13.6068 89.4141 13.3789L88.1973 12.8594C87.5319 12.5814 87.0352 12.2236 86.707 11.7861C86.3835 11.3486 86.2217 10.8245 86.2217 10.2139C86.2217 9.50293 86.486 8.91504 87.0146 8.4502C87.5433 7.98535 88.2178 7.75293 89.0381 7.75293C89.6396 7.75293 90.1592 7.88053 90.5967 8.13574C91.0387 8.39095 91.3828 8.76693 91.6289 9.26367L90.6445 9.89258C90.4212 9.50521 90.1706 9.2181 89.8926 9.03125C89.6146 8.83984 89.3001 8.74414 88.9492 8.74414C88.5026 8.74414 88.1357 8.88086 87.8486 9.1543C87.5661 9.42773 87.4248 9.77637 87.4248 10.2002C87.4248 10.5557 87.5342 10.8633 87.7529 11.123C87.9717 11.3828 88.3112 11.613 88.7715 11.8135L90.2002 12.4424ZM97.4053 12.4424C98.057 12.7204 98.5469 13.0895 98.875 13.5498C99.2077 14.0101 99.374 14.5547 99.374 15.1836C99.374 16.1042 99.0801 16.847 98.4922 17.4121C97.9089 17.9727 97.1341 18.2529 96.168 18.2529C95.3796 18.2529 94.7188 18.0524 94.1855 17.6514C93.6523 17.2458 93.2923 16.6715 93.1055 15.9287L94.1855 15.3955C94.3314 16.0016 94.5706 16.4619 94.9033 16.7764C95.2406 17.0863 95.6621 17.2412 96.168 17.2412C96.765 17.2412 97.248 17.0703 97.6172 16.7285C97.9863 16.3822 98.1709 15.9333 98.1709 15.3818C98.1709 14.9352 98.041 14.5479 97.7812 14.2197C97.526 13.887 97.1387 13.6068 96.6191 13.3789L95.4023 12.8594C94.737 12.5814 94.2402 12.2236 93.9121 11.7861C93.5885 11.3486 93.4268 10.8245 93.4268 10.2139C93.4268 9.50293 93.6911 8.91504 94.2197 8.4502C94.7484 7.98535 95.4229 7.75293 96.2432 7.75293C96.8447 7.75293 97.3643 7.88053 97.8018 8.13574C98.2438 8.39095 98.5879 8.76693 98.834 9.26367L97.8496 9.89258C97.6263 9.50521 97.3757 9.2181 97.0977 9.03125C96.8197 8.83984 96.5052 8.74414 96.1543 8.74414C95.7077 8.74414 95.3408 8.88086 95.0537 9.1543C94.7712 9.42773 94.6299 9.77637 94.6299 10.2002C94.6299 10.5557 94.7393 10.8633 94.958 11.123C95.1768 11.3828 95.5163 11.613 95.9766 11.8135L97.4053 12.4424ZM100.98 18V7.99219H102.17V18H100.98ZM109.478 17.1455C110.024 17.1455 110.544 17.043 111.036 16.8379C111.533 16.6283 111.979 16.3252 112.376 15.9287C112.768 15.5368 113.066 15.0924 113.271 14.5957C113.477 14.099 113.579 13.5726 113.579 13.0166C113.579 12.4561 113.474 11.9229 113.265 11.417C113.06 10.9111 112.763 10.4645 112.376 10.0771C111.984 9.68522 111.54 9.38672 111.043 9.18164C110.551 8.97656 110.029 8.87402 109.478 8.87402C108.922 8.87402 108.395 8.97656 107.898 9.18164C107.402 9.38672 106.962 9.68522 106.579 10.0771C106.187 10.4736 105.889 10.9225 105.684 11.4238C105.479 11.9251 105.376 12.4561 105.376 13.0166C105.376 13.5726 105.476 14.0967 105.677 14.5889C105.882 15.0811 106.183 15.5277 106.579 15.9287C106.98 16.3298 107.424 16.6328 107.912 16.8379C108.404 17.043 108.926 17.1455 109.478 17.1455ZM114.823 13.0166C114.823 13.7321 114.691 14.4066 114.427 15.04C114.162 15.6735 113.777 16.2363 113.271 16.7285C112.766 17.2207 112.182 17.6012 111.521 17.8701C110.865 18.1344 110.184 18.2666 109.478 18.2666C108.771 18.2666 108.09 18.1344 107.434 17.8701C106.782 17.6012 106.203 17.2207 105.697 16.7285C105.187 16.2318 104.797 15.6667 104.528 15.0332C104.264 14.3997 104.132 13.7275 104.132 13.0166C104.132 12.3011 104.264 11.6266 104.528 10.9932C104.797 10.3551 105.187 9.78776 105.697 9.29102C106.199 8.80339 106.777 8.42741 107.434 8.16309C108.09 7.89876 108.771 7.7666 109.478 7.7666C110.188 7.7666 110.872 7.89876 111.528 8.16309C112.189 8.42741 112.77 8.80339 113.271 9.29102C113.777 9.7832 114.162 10.3483 114.427 10.9863C114.691 11.6198 114.823 12.2965 114.823 13.0166ZM108.5 6.99414L109.895 4.61523H111.269L109.32 6.99414H108.5Z" fill="white"/>
</g>
<defs>
<filter id="filter0_d_501_2219" x="0" y="0.523438" width="186" height="28" filterUnits="userSpaceOnUse" color-interpolation-filters="sRGB">
<feFlood flood-opacity="0" result="BackgroundImageFix"/>
<feColorMatrix in="SourceAlpha" type="matrix" values="0 0 0 0 0 0 0 0 0 0 0 0 0 0 0 0 0 0 127 0" result="hardAlpha"/>
<feOffset dy="2"/>
<feGaussianBlur stdDeviation="1"/>
<feComposite in2="hardAlpha" operator="out"/>
<feColorMatrix type="matrix" values="0 0 0 0 0 0 0 0 0 0 0 0 0 0 0 0 0 0 0.25 0"/>
<feBlend mode="normal" in2="BackgroundImageFix" result="effect1_dropShadow_501_2219"/>
<feBlend mode="normal" in="SourceGraphic" in2="effect1_dropShadow_501_2219" result="shape"/>
</filter>
</defs>
</svg>
